<svg width="710" height="286" viewBox="0 0 710 286" fill="none" xmlns="http://www.w3.org/2000/svg">
<path d="M196.214 149.5C191.895 162.197 187.735 167.397 172 167.5V171H245.147V167.5C229.675 167.415 225.958 165.447 227.491 158L262.804 35.5C264.783 29.1206 270.215 25.1324 285 24V20H211.853L210.844 24C225.388 25.3601 230.844 27.2489 229.004 35.5L196.214 149.5Z" fill="white"/>
<path d="M112.143 211.301C111.226 214.076 110.342 215.213 107 215.235V216H122.536V215.235C119.25 215.217 118.46 214.786 118.786 213.159L126.286 186.387C126.706 184.993 127.86 184.122 131 183.874V183H115.464L115.25 183.874C118.339 184.171 119.498 184.584 119.107 186.387L112.143 211.301Z" fill="white"/>
<path d="M191.357 212.874C190.402 215.901 189.481 217.141 186 217.166V218H202.183V217.166C198.76 217.145 197.938 216.676 198.277 214.901L206.089 185.695C206.527 184.174 207.729 183.224 211 182.954V182H194.817L194.594 182.954C197.811 183.278 199.019 183.728 198.612 185.695L191.357 212.874Z" fill="white"/>
<path fill-rule="evenodd" clip-rule="evenodd" d="M77 165.5C73.1667 164 67.6786 161 72.5 146C77 132 85.9322 99.5 87 96.5H95.5L114.5 165C115 166.5 116.5 170 119 170L162.5 170.5V167C159.167 167.167 151.4 165.9 147 159.5C140 150 127 98 126.5 96C125.79 93.2 128.204 92.5 129.5 92.5C160.7 85.3 167.167 63.8333 166.5 54C167 26.5 142 21.5 135 21C129.4 20.6 81.8333 20.3333 58 20H56.5V23.5C70 23.5 73 27 73 34L39 153.5C37.5 158.5 31.8 166.8 17 166V169.5H18.5L87.6912 170V167C85.4608 167 80.2 166.7 77 165.5ZM121.5 29.5C130.5 32.5 136 37.5 132.5 60.5C129.62 79.4237 112 89.5 104.5 90H88.5L107 28.5C109.167 28.1667 115.5 27.9 121.5 29.5Z" fill="white"/>
<path d="M181.5 185.042C181.5 185.042 174 210.345 173.5 212.423C173 214.5 173.4 215.972 177 215.972V218H160.5V216.479C162.279 216.281 163.5 216.479 164.5 214.958C165.5 213.437 174.5 185.042 174.5 185.042C174.5 185.042 174.5 184.535 171.5 185.042C168.5 185.549 164.631 188.442 161.5 192.141L165 182H191.5L188.5 192.141C188.358 185.902 186.618 184.624 181.5 185.042Z" fill="white"/>
<path d="M107.5 200H93.5V201C95.3333 201.333 97.7083 202.75 97 207C96.5 210 95 213.5 95 213.5C93 216 91 217 87 215.5C79.5 210.5 81.5 203 82.5 199.5C83.5 196 85.6699 192.229 89 189C91.8767 186.211 96.1726 183.762 99.5 184C105.1 184.4 106.167 190.167 106 193H107L109 182.5H108.5C108 183 106.6 184 105 184C101.721 182.361 96 182 91.5 183C76.7 187 74 199.333 74.5 205C75.5 212.5 80 216.5 86 217.5H95C100 217 102.132 210.905 103 207C104 202.5 106.167 201.167 107.5 201V200Z" fill="white"/>
<path d="M346.5 182H345.5C345.333 182.833 344.894 184 344 184C342.5 184 338.5 182.692 336 182.5C329.5 182 323.111 184.5 324 192.5C324.5 197 327.539 199.06 329 200.5C340.61 211.944 333 218.444 323 214C319.4 212.4 319.5 207.667 320 205.5H318.5L316 217.5H316.5C317.337 217.373 318.5 215.5 324.5 217C331.425 218.731 339.5 215.837 340.5 211.5C341.5 207.163 341.978 201.843 336 198C329 193.5 328.547 185.66 334.5 185C340.233 184.364 343.357 189.446 344 193.5C344 193.5 343.972 191.14 344.5 188.5C345 186 346.5 182 346.5 182Z" fill="white"/>
<path d="M304.5 182H305.5C305.5 182 304 186 303.5 188.5C302.972 191.14 303 193.5 303 193.5C302.357 189.446 299.233 184.364 293.5 185C287.547 185.66 288 193.5 295 198C300.978 201.843 300.5 207.163 299.5 211.5C298.5 215.837 290.425 218.731 283.5 217C277.5 215.5 276.337 217.373 275.5 217.5H275L277.5 205.5H279C278.5 207.667 278.4 212.4 282 214C292 218.444 299.61 211.944 288 200.5C286.539 199.06 283.5 197 283 192.5C282.111 184.5 288.5 182 295 182.5C297.5 182.692 301.5 184 303 184C303.894 184 304.333 182.833 304.5 182Z" fill="white"/>
<path d="M408.5 181L409.5 182C409.5 182 408 186 407.5 188.5C406.972 191.14 407 193.5 407 193.5C406.357 189.446 403.233 184.364 397.5 185C391.547 185.66 392 193.5 399 198C404.978 201.843 404.5 207.163 403.5 211.5C402.5 215.837 394.425 218.731 387.5 217C381.5 215.5 380.337 217.373 379.5 217.5H379L381.5 205.5H383C382.5 207.667 382.4 212.4 386 214C396 218.444 403.61 211.944 392 200.5C390.539 199.06 387.5 197 387 192.5C386.111 184.5 392.5 181.5 399 182C401.5 182.192 405.5 184 407 184C407.894 184 408.333 181.833 408.5 181Z" fill="white"/>
<path d="M156.016 182H157C157 182 155.525 186.055 155.033 188.59C154.513 191.267 154.541 193.659 154.541 193.659C153.909 189.549 150.836 184.397 145.197 185.041C139.341 185.711 139.787 193.659 146.672 198.221C152.552 202.117 152.082 207.511 151.098 211.908C150.115 216.305 142.173 219.239 135.361 217.484C129.459 215.963 128.315 217.862 127.492 217.991H127L129.459 205.825H130.934C130.443 208.021 130.344 212.82 133.885 214.442C143.721 218.948 151.207 212.358 139.787 200.756C138.35 199.296 135.361 197.207 134.869 192.645C133.995 184.535 140.279 182 146.672 182.507C149.131 182.702 153.066 184.028 154.541 184.028C155.421 184.028 155.852 182.845 156.016 182Z" fill="white"/>
<path fill-rule="evenodd" clip-rule="evenodd" d="M376 217V216.5H375C374.328 216.514 372.595 216.021 372.5 214C372.404 211.963 372.667 192.667 373 183V182L372.5 182.5L344 215.5L343.5 216L342.5 216.5H342V217H352V216.5H350.5C349.451 216.655 348.056 215.463 349.5 213.5C350.643 211.945 353.46 208.425 354.854 206.682L355 206.5H366.5V212C366.5 213.167 364.8 216.1 362 216.5H361V217H376ZM366 194L357.5 203.5H366.5V194H366Z" fill="white"/>
<path fill-rule="evenodd" clip-rule="evenodd" d="M273 217V216.5H272C271.328 216.514 269.595 216.021 269.5 214C269.404 211.963 269.667 192.667 270 183V182L269.5 182.5L241 215.5L240.5 216L239.5 216.5H239V217H249V216.5H247.5C246.451 216.655 245.056 215.463 246.5 213.5C247.643 211.945 250.46 208.425 251.854 206.682L252 206.5H263.5V212C263.5 213.167 261.8 216.1 259 216.5H258V217H273ZM263 194L254.5 203.5H263.5V194H263Z" fill="white"/>
<path d="M244.5 182L241.5 193.5H241C241 190.333 240.5 184.5 233 184.5C223 184 216.5 200.5 218.5 208.5C221.7 220.1 232.667 214 238 209.5C231.53 219.306 220 220 215 214C205 201.2 216.5 189 223.5 184.5C226.611 182.5 232.9 180.9 236.5 182.5C240.1 184.1 242 183.5 242.5 183L243 182H244.5Z" fill="white"/>
<path d="M351.5 278.5C351.5 278.5 467.5 171.455 467.5 169.455C467.5 167.454 452.5 152.955 448.5 142.955C444.5 132.955 458 118 469 119.5C480 121 502.912 132.356 523 150.5C537.018 163.27 544.483 171.012 557 186C569.517 200.988 560.5 216.593 539 228.5C517.5 240.407 483.732 251.106 442 252C473.728 237.048 516.5 210.5 520 208C523.5 205.5 523 204.455 523 202.955C523 201.454 517.5 195.454 515 192.955C512.5 190.455 506 189.955 503 189.955C500 189.955 351.5 285 351.5 285V278.5Z" fill="white"/>
<path d="M709.5 77.0455C708.174 76.3724 667.658 121.865 658 125.546C648.342 129.226 640.892 123.656 634 111.546C627.081 91.2521 614.5 77.5455 608.5 79.0455C602.5 80.5455 597.864 88.6409 596 98C594.864 112.059 600.5 125.454 607 134C613.5 142.546 629.5 155 645 155C660.5 155 675.104 144.623 693.5 122.046C705.595 105.654 709.247 95.8316 709.5 77.0455Z" fill="white"/>
<path d="M520 52.5455C528.333 57.5455 546.741 62.8376 551 53.5455C556.5 41.5455 544 28.5455 543 27.5455C520.6 3.14552 501 1.54551 487.5 1.04551C483.878 0.829061 478.89 1.4215 476 2.04551C473.385 2.6102 470.85 3.62037 468 5.04551C433.2 26.6455 435.333 75.0455 441 97.0455C446 74.5455 461.5 29.6455 483.5 30.0455C491.1 30.0455 500 36.3788 503.5 39.5455C508.474 44.0455 515 49.5455 520 52.5455Z" fill="white"/>
<path d="M572.543 44.5C573.043 53.5 579.943 71.8 603.543 73C627.143 74.2 636.333 54.5 637 44.5C636.833 35 629.5 15.8373 603.543 15C578.743 14.2 572.543 34.3333 572.543 44.5Z" fill="white"/>
<path d="M28.5 215.5H1C3.88034 214.283 5 214 6 212.5C7 211 14.5 185 14.5 183.5C14.5 182 12.0621 182.281 10.5 181.5V180.5H26.5V181.5C24.2927 181.876 23 182 22 183.5C21 185 12.5 212.5 12.5 212.5H21.5C26.4923 210.461 28.8623 208.796 32 204.5L28.5 215.5Z" fill="white"/>
<path fill-rule="evenodd" clip-rule="evenodd" d="M316 33C315 38 280 159 280 159C278.5 161.833 272.3 167.1 259.5 165.5C258.5 167 256.8 170 258 170H337.5C358 169 398.8 158.7 398 125.5C398.5 115.667 392.1 94.1 362.5 90.5L359.5 90L365.162 88.4616C380.052 84.9092 410.101 72.4202 410.5 50.5C411 23 380.5 19 369 19H299L298 22.5C310.044 22.0638 317 28 316 33ZM371.5 66.5C386.7 30.5 362 25.1667 348.5 27L331.5 86C333.667 86.3333 343 86.3 353 83.5C363 80.7 369.5 71 371.5 66.5ZM350.623 96.7616C348.565 95.5755 335.016 94.7847 329.014 95.2789L309.977 161.507C321.296 163.484 349.594 162.1 359.885 136.795C371.56 108.083 354.931 99.0947 351.098 97.0224C350.906 96.9187 350.746 96.8323 350.623 96.7616Z" fill="white"/>
<path fill-rule="evenodd" clip-rule="evenodd" d="M38.3776 195.144C39.7169 190.724 44.8776 182.644 51.8776 180.644C56.3776 179.358 59.8776 180.344 61.3776 180.644C63.8776 181.144 73.248 185.644 67.8776 200.144C63.1521 212.903 52.5443 215.644 48.3776 215.644C43.2109 215.644 33.3776 211.644 38.3776 195.144ZM57.8776 182.144C45.8777 182.144 37.3776 215.644 50.3776 213.144C53.8776 212.471 58.3777 206.644 60.8776 199.144C62.0443 195.644 63.1277 187.644 61.8776 185.144C61.3083 184.006 60.8807 183.541 60.3776 183.144C59.7761 182.67 59.0537 182.144 57.8776 182.144Z" fill="white"/>
<path d="M172 167.5L171.997 167L171.5 167.003V167.5H172ZM196.214 149.5L196.688 149.661L196.691 149.65L196.695 149.638L196.214 149.5ZM229.004 35.5L229.485 35.6382L229.489 35.6236L229.492 35.6088L229.004 35.5ZM210.844 24L210.359 23.8777L210.216 24.4435L210.797 24.4978L210.844 24ZM211.853 20V19.5H211.463L211.368 19.8777L211.853 20ZM285 20H285.5V19.5H285V20ZM285 24L285.038 24.4985L285.5 24.4632V24H285ZM262.804 35.5L262.326 35.3518L262.323 35.3615L262.804 35.5ZM227.491 158L227.011 157.862L227.005 157.88L227.001 157.899L227.491 158ZM245.147 167.5H245.647V167.003L245.15 167L245.147 167.5ZM245.147 171V171.5H245.647V171H245.147ZM172 171H171.5V171.5H172V171ZM107 215.235L106.997 214.735L106.5 214.738V215.235H107ZM112.143 211.301L112.618 211.458L112.621 211.447L112.624 211.436L112.143 211.301ZM119.107 186.387L119.589 186.522L119.593 186.508L119.596 186.493L119.107 186.387ZM115.25 183.874L114.764 183.755L114.627 184.317L115.202 184.372L115.25 183.874ZM115.464 183V182.5H115.072L114.979 182.881L115.464 183ZM131 183H131.5V182.5H131V183ZM131 183.874L131.039 184.373L131.5 184.336V183.874H131ZM126.286 186.387L125.807 186.243L125.804 186.253L126.286 186.387ZM118.786 213.159L118.304 213.024L118.299 213.042L118.295 213.061L118.786 213.159ZM122.536 215.235H123.036V214.738L122.539 214.735L122.536 215.235ZM122.536 216V216.5H123.036V216H122.536ZM107 216H106.5V216.5H107V216ZM186 217.166L185.996 216.666L185.5 216.669V217.166H186ZM191.357 212.874L191.834 213.025L191.837 213.014L191.84 213.003L191.357 212.874ZM198.612 185.695L199.095 185.824L199.098 185.811L199.101 185.797L198.612 185.695ZM194.594 182.954L194.107 182.84L193.977 183.394L194.544 183.451L194.594 182.954ZM194.817 182V181.5H194.42L194.33 181.886L194.817 182ZM211 182H211.5V181.5H211V182ZM211 182.954L211.041 183.452L211.5 183.414V182.954H211ZM206.089 185.695L205.609 185.557L205.606 185.566L206.089 185.695ZM198.277 214.901L197.794 214.771L197.789 214.789L197.786 214.807L198.277 214.901ZM202.183 217.166H202.683V216.669L202.186 216.666L202.183 217.166ZM202.183 218V218.5H202.683V218H202.183ZM186 218H185.5V218.5H186V218ZM87.6912 170L87.6876 170.5L88.1912 170.504V170H87.6912ZM77 165.5L76.8178 165.966L76.8244 165.968L77 165.5ZM72.5 146L72.976 146.153L72.976 146.153L72.5 146ZM87 96.5V96H86.6472L86.5289 96.3323L87 96.5ZM95.5 96.5L95.9818 96.3664L95.8802 96H95.5V96.5ZM114.5 165L114.018 165.134L114.022 165.146L114.026 165.158L114.5 165ZM119 170L119.006 169.5H119V170ZM162.5 170.5L162.494 171L163 171.006V170.5H162.5ZM147 159.5L147.412 159.217L147.407 159.21L147.403 159.203L147 159.5ZM126.5 96L126.985 95.8787L126.985 95.8771L126.5 96ZM166.5 54L166 53.9909L166 54.0124L166.001 54.0338L166.5 54ZM135 21L134.964 21.4987L135 21ZM58 20L58.007 19.5H58V20ZM162.5 167H163V166.474L162.475 166.501L162.5 167ZM87.6912 167H88.1912V166.5H87.6912V167ZM56.5 20V19.5H56V20H56.5ZM129.5 92.5V93H129.557L129.612 92.9872L129.5 92.5ZM132.5 60.5L132.994 60.5752L132.994 60.5752L132.5 60.5ZM121.5 29.5L121.658 29.0257L121.644 29.0208L121.629 29.0169L121.5 29.5ZM104.5 90V90.5H104.517L104.533 90.4989L104.5 90ZM88.5 90L88.0212 89.856L87.8275 90.5H88.5V90ZM107 28.5L106.924 28.0058L106.612 28.0538L106.521 28.356L107 28.5ZM73 34L73.4809 34.1368L73.5 34.0697V34H73ZM56.5 23.5H56V24L56.5 24L56.5 23.5ZM39 153.5L39.479 153.644L39.4809 153.637L39 153.5ZM17 166L17.027 165.501L16.5 165.472V166H17ZM17 169.5H16.5V170H17V169.5ZM18.5 169.5L18.5036 169H18.5V169.5ZM181.5 185.042L181.459 184.544L181.118 184.572L181.021 184.9L181.5 185.042ZM188.5 192.141L188 192.152L188.979 192.283L188.5 192.141ZM191.5 182L191.979 182.142L192.169 181.5H191.5V182ZM165 182V181.5H164.644L164.527 181.837L165 182ZM161.5 192.141L161.027 191.978L161.882 192.464L161.5 192.141ZM174.5 185.042L174.977 185.193L175 185.12V185.042H174.5ZM160.5 216.479L160.445 215.982L160 216.031V216.479H160.5ZM160.5 218H160V218.5H160.5V218ZM177 218V218.5H177.5V218H177ZM177 215.972H177.5V215.472H177V215.972ZM93.5 200V199.5L93 200H93.5ZM107.5 200H108L107.5 199.5V200ZM107.5 201L107.562 201.496L108 201H107.5ZM103 207L102.512 206.891L102.512 206.891L103 207ZM95 217.5V218L95.0497 217.997L95 217.5ZM86 217.5L85.9178 217.993L86 218V217.5ZM74.5 205L74.0019 205.044L74.0044 205.066L74.5 205ZM91.5 183L91.3915 182.512L91.3695 182.517L91.5 183ZM105 184L104.776 184.447L104.882 184.5H105V184ZM107 193V193.5L107.491 193.093L107 193ZM109 182.5L109.491 182.593L109 182V182.5ZM108.5 182.5V182L108.146 182.146L108.5 182.5ZM106 193L105.501 192.971L106 193.5V193ZM99.5 184L99.4644 184.499L99.4644 184.499L99.5 184ZM87 215.5L86.7226 215.916L86.8244 215.968L87 215.5ZM89 189L88.6519 188.641L88.6519 188.641L89 189ZM95 213.5L95.3904 213.812L95.4596 213.697L95 213.5ZM93.5 201H93L93.4105 201.492L93.5 201ZM97 207L96.5068 206.918L96.5068 206.918L97 207ZM344 193.5L343.506 193.578L344.5 193.494L344 193.5ZM346.5 182L346.968 182.176L347.221 181.5H346.5V182ZM345.5 182V181.5H345.09L345.01 181.902L345.5 182ZM336 182.5L336.038 182.001L336 182.5ZM324 192.5L323.503 192.555L324 192.5ZM323 214L323.203 213.543L323 214ZM329 200.5L329.351 200.144L329 200.5ZM320 205.5L320.487 205.612L320.629 205H320V205.5ZM318.5 205.5V205H318.093L318.011 205.398L318.5 205.5ZM316 217.5L315.511 217.398L315.385 218H316V217.5ZM316.5 217.5V218H316.538L316.575 217.994L316.5 217.5ZM336 198L335.73 198.421L336 198ZM334.5 185L334.555 185.497L334.5 185ZM344.5 188.5L344.01 188.402L344.5 188.5ZM305.5 182L305.968 182.176L306.221 181.5H305.5V182ZM304.5 182V181.5H304.09L304.01 181.902L304.5 182ZM295 182.5L295.038 182.001L295 182.5ZM283 192.5L283.497 192.445L283.497 192.445L283 192.5ZM288 200.5L287.649 200.856L287.649 200.856L288 200.5ZM282 214L281.797 214.457L281.797 214.457L282 214ZM279 205.5L279.487 205.612L279.629 205H279V205.5ZM277.5 205.5V205H277.093L277.011 205.398L277.5 205.5ZM275 217.5L274.511 217.398L274.385 218H275V217.5ZM275.5 217.5V218H275.538L275.575 217.994L275.5 217.5ZM283.5 217L283.621 216.515L283.621 216.515L283.5 217ZM293.5 185L293.445 184.503L293.5 185ZM295 198L294.73 198.421L294.73 198.421L295 198ZM303 193.5L302.506 193.578L303.5 193.494L303 193.5ZM303.5 188.5L303.99 188.598L303.99 188.598L303.5 188.5ZM409.5 182L409.968 182.176L410.081 181.874L409.854 181.646L409.5 182ZM408.5 181L408.854 180.646L408.193 179.986L408.01 180.902L408.5 181ZM399 182L398.962 182.499L399 182ZM387 192.5L387.497 192.445L387.497 192.445L387 192.5ZM392 200.5L391.649 200.856L391.649 200.856L392 200.5ZM386 214L385.797 214.457L385.797 214.457L386 214ZM383 205.5L383.487 205.612L383.629 205H383V205.5ZM381.5 205.5V205H381.093L381.011 205.398L381.5 205.5ZM379 217.5L378.511 217.398L378.385 218H379V217.5ZM379.5 217.5V218H379.538L379.575 217.994L379.5 217.5ZM387.5 217L387.621 216.515L387.621 216.515L387.5 217ZM397.5 185L397.555 185.497L397.5 185ZM399 198L398.73 198.421L398.73 198.421L399 198ZM407 193.5L406.506 193.578L407.5 193.494L407 193.5ZM407.5 188.5L407.99 188.598L407.99 188.598L407.5 188.5ZM157 182L157.47 182.171L157.714 181.5H157V182ZM156.016 182V181.5H155.604L155.526 181.905L156.016 182ZM146.672 182.507L146.712 182.008L146.712 182.008L146.672 182.507ZM134.869 192.645L135.366 192.592L134.869 192.645ZM139.787 200.756L140.143 200.405L140.143 200.405L139.787 200.756ZM133.885 214.442L134.093 213.988L134.093 213.988L133.885 214.442ZM130.934 205.825L131.422 205.934L131.559 205.325H130.934V205.825ZM129.459 205.825V205.325H129.05L128.969 205.726L129.459 205.825ZM127 217.991L126.51 217.892L126.389 218.491H127V217.991ZM127.492 217.991V218.491H127.531L127.569 218.485L127.492 217.991ZM135.361 217.484L135.236 217.968L135.361 217.484ZM151.098 211.908L150.61 211.799L150.61 211.799L151.098 211.908ZM145.197 185.041L145.254 185.538L145.254 185.538L145.197 185.041ZM146.672 198.221L146.396 198.638L146.396 198.638L146.672 198.221ZM154.541 193.659L154.047 193.735L155.041 193.653L154.541 193.659ZM155.033 188.59L155.524 188.685L155.524 188.685L155.033 188.59ZM361 217H360.5V217.5H361V217ZM376 217V217.5H376.5V217H376ZM376 216.5H376.5V216H376V216.5ZM375 216.5V216L374.989 216L375 216.5ZM372.5 214L372.001 214.023L372.5 214ZM373 183L373.5 183.017L373.5 183.009V183H373ZM373 182H373.5V180.793L372.646 181.646L373 182ZM372.5 182.5L372.146 182.146L372.134 182.159L372.122 182.173L372.5 182.5ZM344 215.5L344.354 215.854L344.366 215.841L344.378 215.827L344 215.5ZM343.5 216L343.724 216.447L343.796 216.411L343.854 216.354L343.5 216ZM342.5 216.5V217H342.618L342.724 216.947L342.5 216.5ZM342 216.5V216H341.5V216.5H342ZM342 217H341.5V217.5H342V217ZM352 217V217.5H352.5V217H352ZM352 216.5H352.5V216H352V216.5ZM350.5 216.5V216H350.463L350.427 216.005L350.5 216.5ZM349.5 213.5L349.903 213.796L349.903 213.796L349.5 213.5ZM355 206.5V206H354.76L354.61 206.188L355 206.5ZM366.5 206.5H367V206H366.5V206.5ZM362 216.5V217H362.036L362.071 216.995L362 216.5ZM361 216.5V216H360.5V216.5H361ZM357.5 203.5L357.127 203.167L356.382 204H357.5V203.5ZM366 194V193.5H365.776L365.627 193.667L366 194ZM366.5 194H367V193.5H366.5V194ZM366.5 203.5V204H367V203.5H366.5ZM354.854 206.682L354.464 206.37L354.464 206.37L354.854 206.682ZM258 217H257.5V217.5H258V217ZM273 217V217.5H273.5V217H273ZM273 216.5H273.5V216H273V216.5ZM272 216.5V216L271.989 216L272 216.5ZM269.5 214L269.001 214.023L269.5 214ZM270 183L270.5 183.017L270.5 183.009V183H270ZM270 182H270.5V180.793L269.646 181.646L270 182ZM269.5 182.5L269.146 182.146L269.134 182.159L269.122 182.173L269.5 182.5ZM241 215.5L241.354 215.854L241.366 215.841L241.378 215.827L241 215.5ZM240.5 216L240.724 216.447L240.796 216.411L240.854 216.354L240.5 216ZM239.5 216.5V217H239.618L239.724 216.947L239.5 216.5ZM239 216.5V216H238.5V216.5H239ZM239 217H238.5V217.5H239V217ZM249 217V217.5H249.5V217H249ZM249 216.5H249.5V216H249V216.5ZM247.5 216.5V216H247.463L247.427 216.005L247.5 216.5ZM246.5 213.5L246.903 213.796L246.903 213.796L246.5 213.5ZM252 206.5V206H251.76L251.61 206.188L252 206.5ZM263.5 206.5H264V206H263.5V206.5ZM259 216.5V217H259.036L259.071 216.995L259 216.5ZM258 216.5V216H257.5V216.5H258ZM254.5 203.5L254.127 203.167L253.382 204H254.5V203.5ZM263 194V193.5H262.776L262.627 193.667L263 194ZM263.5 194H264V193.5H263.5V194ZM263.5 203.5V204H264V203.5H263.5ZM241.5 193.5V194H241.886L241.984 193.626L241.5 193.5ZM244.5 182L244.984 182.126L245.147 181.5H244.5V182ZM243 182V181.5H242.691L242.553 181.776L243 182ZM242.5 183L242.854 183.354L242.911 183.296L242.947 183.224L242.5 183ZM223.5 184.5L223.77 184.921L223.77 184.921L223.5 184.5ZM215 214L214.606 214.308L214.611 214.314L214.616 214.32L215 214ZM238 209.5L238.417 209.775L237.678 209.118L238 209.5ZM218.5 208.5L218.015 208.621L218.018 208.633L218.5 208.5ZM233 184.5L232.975 184.999L232.988 185H233V184.5ZM241 193.5H240.5V194H241V193.5ZM351.5 278.5L351.161 278.133L351 278.281V278.5H351.5ZM523 150.5L523.337 150.131L523.335 150.129L523 150.5ZM442 252L441.787 251.548L442.011 252.5L442 252ZM351.5 285H351V285.914L351.77 285.421L351.5 285ZM709.5 77.0455L710 77.0522L710.004 76.7407L709.726 76.5996L709.5 77.0455ZM634 111.546L633.527 111.707L633.542 111.752L633.565 111.793L634 111.546ZM596 98L595.51 97.9023L595.504 97.9308L595.502 97.9597L596 98ZM693.5 122.046L693.888 122.361L693.895 122.352L693.902 122.342L693.5 122.046ZM520 52.5455L519.743 52.9743L519.743 52.9743L520 52.5455ZM551 53.5455L550.545 53.3372L550.545 53.3372L551 53.5455ZM543 27.5455L542.632 27.8837L542.639 27.8915L542.646 27.8991L543 27.5455ZM487.5 1.04551L487.47 1.54474L487.481 1.54516L487.5 1.04551ZM476 2.04551L475.894 1.55677L475.894 1.55677L476 2.04551ZM468 5.04551L467.776 4.5983L467.756 4.60857L467.736 4.62069L468 5.04551ZM441 97.0455L440.516 97.1702L441.488 97.154L441 97.0455ZM483.5 30.0455L483.491 30.5455H483.5V30.0455ZM503.5 39.5455L503.835 39.1747L503.835 39.1747L503.5 39.5455ZM572.543 44.5H572.043V44.5139L572.043 44.5277L572.543 44.5ZM637 44.5L637.499 44.5333L637.5 44.5123L637.5 44.4912L637 44.5ZM603.543 15L603.559 14.5003L603.543 15ZM1 215.5L0.805405 215.039L1 216V215.5ZM28.5 215.5V216H28.8656L28.9765 215.652L28.5 215.5ZM32 204.5L32.4765 204.652L31.5962 204.205L32 204.5ZM21.5 212.5V213H21.5982L21.6891 212.963L21.5 212.5ZM12.5 212.5L12.0223 212.352L11.8221 213H12.5V212.5ZM26.5 181.5L26.5839 181.993L27 181.922V181.5H26.5ZM26.5 180.5H27V180H26.5V180.5ZM10.5 180.5V180H10V180.5H10.5ZM10.5 181.5H10V181.809L10.2764 181.947L10.5 181.5ZM316 33L316.49 33.0981L316.49 33.0981L316 33ZM280 159L280.442 159.234L280.466 159.188L280.48 159.139L280 159ZM259.5 165.5L259.562 165.004L259.255 164.966L259.084 165.223L259.5 165.5ZM337.5 170V170.5H337.512L337.524 170.499L337.5 170ZM398 125.5L397.501 125.475L397.5 125.493L397.5 125.512L398 125.5ZM362.5 90.5L362.418 90.9932L362.429 90.995L362.44 90.9963L362.5 90.5ZM359.5 90L359.369 89.5175L359.418 90.4932L359.5 90ZM365.162 88.4616L365.046 87.9752L365.038 87.977L365.031 87.9791L365.162 88.4616ZM410.5 50.5L410 50.4909L410 50.4909L410.5 50.5ZM299 19V18.5H298.623L298.519 18.8626L299 19ZM298 22.5L297.519 22.3626L297.33 23.0246L298.018 22.9997L298 22.5ZM348.5 27L348.433 26.5045L348.11 26.5484L348.02 26.8616L348.5 27ZM371.5 66.5L371.957 66.7031L371.961 66.6945L371.5 66.5ZM331.5 86L331.02 85.8616L330.862 86.4078L331.424 86.4942L331.5 86ZM329.014 95.2789L328.973 94.7806L328.629 94.809L328.533 95.1408L329.014 95.2789ZM350.623 96.7616L350.374 97.1948L350.374 97.1948L350.623 96.7616ZM359.885 136.795L360.348 136.984L360.348 136.984L359.885 136.795ZM309.977 161.507L309.496 161.369L309.342 161.904L309.891 162L309.977 161.507ZM351.098 97.0224L351.335 96.5826L351.335 96.5826L351.098 97.0224ZM38.3776 195.144L38.8561 195.289L38.8561 195.289L38.3776 195.144ZM51.8776 180.644L51.7403 180.163L51.7403 180.163L51.8776 180.644ZM67.8776 200.144L68.3465 200.318L68.3465 200.318L67.8776 200.144ZM61.3776 180.644L61.2796 181.134L61.3776 180.644ZM50.3776 213.144L50.472 213.635L50.472 213.635L50.3776 213.144ZM60.8776 199.144L61.352 199.302L61.352 199.302L60.8776 199.144ZM61.8776 185.144L61.4304 185.368L61.4304 185.368L61.8776 185.144ZM60.3776 183.144L60.6873 182.752L60.6873 182.752L60.3776 183.144ZM172 167.5L172.003 168C179.914 167.948 185.027 166.617 188.705 163.61C192.37 160.612 194.526 156.015 196.688 149.661L196.214 149.5L195.741 149.339C193.583 155.681 191.5 160.033 188.072 162.836C184.656 165.628 179.821 166.949 171.997 167L172 167.5ZM196.214 149.5L196.695 149.638L229.485 35.6382L229.004 35.5L228.524 35.3618L195.734 149.362L196.214 149.5ZM229.004 35.5L229.492 35.6088C229.963 33.4979 229.983 31.7282 229.46 30.2469C228.931 28.7508 227.871 27.6134 226.315 26.7309C224.77 25.8553 222.721 25.2211 220.172 24.7198C217.619 24.2175 214.531 23.8426 210.89 23.5022L210.844 24L210.797 24.4978C214.429 24.8374 217.476 25.2086 219.979 25.701C222.487 26.1941 224.414 26.8028 225.821 27.6008C227.217 28.3919 228.085 29.3588 228.517 30.58C228.953 31.816 228.966 33.3765 228.516 35.3912L229.004 35.5ZM210.844 24L211.329 24.1223L212.337 20.1223L211.853 20L211.368 19.8777L210.359 23.8777L210.844 24ZM211.853 20V20.5H285V20V19.5H211.853V20ZM285 20H284.5V24H285H285.5V20H285ZM285 24L284.962 23.5015C277.541 24.0699 272.402 25.3582 268.856 27.3462C265.283 29.3488 263.351 32.0478 262.326 35.3518L262.804 35.5L263.281 35.6482C264.236 32.5728 266.01 30.088 269.345 28.2185C272.705 26.3345 277.675 25.0625 285.038 24.4985L285 24ZM262.804 35.5L262.323 35.3615L227.011 157.862L227.491 158L227.972 158.138L263.284 35.6385L262.804 35.5ZM245.147 167.5H244.647V171H245.147H245.647V167.5H245.147ZM245.147 171V170.5H172V171V171.5H245.147V171ZM172 171H172.5V167.5H172H171.5V171H172ZM245.147 167.5L245.15 167C241.289 166.979 238.179 166.84 235.708 166.531C233.23 166.221 231.434 165.744 230.179 165.07C228.942 164.407 228.237 163.558 227.906 162.469C227.567 161.353 227.604 159.93 227.981 158.101L227.491 158L227.001 157.899C226.611 159.793 226.539 161.409 226.949 162.759C227.367 164.136 228.27 165.181 229.706 165.951C231.122 166.711 233.06 167.207 235.583 167.523C238.113 167.84 241.269 167.979 245.145 168L245.147 167.5ZM107 215.235L107.003 215.735C108.72 215.724 109.918 215.428 110.803 214.683C111.673 213.951 112.158 212.85 112.618 211.458L112.143 211.301L111.668 211.144C111.211 212.527 110.795 213.382 110.159 213.918C109.537 214.441 108.622 214.724 106.997 214.735L107 215.235ZM112.143 211.301L112.624 211.436L119.589 186.522L119.107 186.387L118.626 186.253L111.661 211.167L112.143 211.301ZM119.107 186.387L119.596 186.493C119.704 185.996 119.72 185.53 119.577 185.113C119.428 184.681 119.131 184.365 118.735 184.134C118.353 183.911 117.868 183.762 117.31 183.649C116.747 183.535 116.075 183.451 115.298 183.376L115.25 183.874L115.202 184.372C115.97 184.446 116.601 184.525 117.112 184.629C117.627 184.733 117.987 184.855 118.232 184.998C118.463 185.133 118.575 185.276 118.631 185.438C118.692 185.615 118.706 185.878 118.618 186.282L119.107 186.387ZM115.25 183.874L115.736 183.993L115.95 183.119L115.464 183L114.979 182.881L114.764 183.755L115.25 183.874ZM115.464 183V183.5H131V183V182.5H115.464V183ZM131 183H130.5V183.874H131H131.5V183H131ZM131 183.874L130.961 183.376C129.36 183.502 128.201 183.79 127.373 184.268C126.52 184.76 126.051 185.435 125.807 186.243L126.286 186.387L126.764 186.532C126.941 185.946 127.259 185.488 127.873 185.134C128.512 184.765 129.499 184.494 131.039 184.373L131 183.874ZM126.286 186.387L125.804 186.253L118.304 213.024L118.786 213.159L119.267 213.294L126.767 186.522L126.286 186.387ZM122.536 215.235H122.036V216H122.536H123.036V215.235H122.536ZM122.536 216V215.5H107V216V216.5H122.536V216ZM107 216H107.5V215.235H107H106.5V216H107ZM122.536 215.235L122.539 214.735C121.724 214.731 121.083 214.7 120.581 214.636C120.074 214.571 119.751 214.475 119.548 214.363C119.365 214.262 119.29 214.155 119.252 214.026C119.206 213.871 119.201 213.633 119.276 213.257L118.786 213.159L118.295 213.061C118.208 213.499 118.179 213.925 118.293 214.309C118.414 214.719 118.68 215.026 119.065 215.238C119.429 215.439 119.899 215.556 120.454 215.628C121.015 215.7 121.704 215.73 122.533 215.735L122.536 215.235ZM186 217.166L186.004 217.666C187.794 217.653 189.039 217.329 189.956 216.521C190.854 215.73 191.356 214.54 191.834 213.025L191.357 212.874L190.88 212.724C190.403 214.235 189.967 215.179 189.295 215.771C188.643 216.346 187.688 216.654 185.996 216.666L186 217.166ZM191.357 212.874L191.84 213.003L199.095 185.824L198.612 185.695L198.129 185.566L190.874 212.745L191.357 212.874ZM198.612 185.695L199.101 185.797C199.212 185.26 199.227 184.766 199.083 184.327C198.934 183.872 198.633 183.532 198.223 183.282C197.826 183.039 197.322 182.876 196.74 182.753C196.154 182.629 195.453 182.538 194.644 182.456L194.594 182.954L194.544 183.451C195.343 183.532 196 183.619 196.533 183.731C197.069 183.845 197.445 183.979 197.701 184.135C197.944 184.283 198.07 184.446 198.133 184.638C198.201 184.847 198.214 185.147 198.122 185.594L198.612 185.695ZM194.594 182.954L195.081 183.068L195.304 182.114L194.817 182L194.33 181.886L194.107 182.84L194.594 182.954ZM194.817 182V182.5H211V182V181.5H194.817V182ZM211 182H210.5V182.954H211H211.5V182H211ZM211 182.954L210.959 182.455C209.291 182.593 208.084 182.908 207.224 183.427C206.339 183.962 205.858 184.69 205.609 185.557L206.089 185.695L206.57 185.834C206.758 185.179 207.097 184.672 207.741 184.283C208.409 183.88 209.438 183.584 211.041 183.452L211 182.954ZM206.089 185.695L205.606 185.566L197.794 214.771L198.277 214.901L198.76 215.03L206.572 185.825L206.089 185.695ZM202.183 217.166H201.683V218H202.183H202.683V217.166H202.183ZM202.183 218V217.5H186V218V218.5H202.183V218ZM186 218H186.5V217.166H186H185.5V218H186ZM202.183 217.166L202.186 216.666C201.338 216.661 200.67 216.628 200.148 216.557C199.62 216.486 199.282 216.381 199.069 216.258C198.877 216.147 198.789 216.023 198.744 215.865C198.692 215.681 198.689 215.408 198.768 214.995L198.277 214.901L197.786 214.807C197.695 215.281 197.668 215.733 197.781 216.136C197.903 216.566 198.17 216.894 198.569 217.124C198.947 217.343 199.435 217.47 200.014 217.548C200.599 217.627 201.317 217.66 202.18 217.666L202.183 217.166ZM77 165.5L77.1822 165.034C75.2925 164.295 73.1258 163.233 71.9615 160.61C70.7871 157.964 70.5792 153.61 72.976 146.153L72.5 146L72.024 145.847C69.5993 153.39 69.7248 158.036 71.0475 161.015C72.3802 164.017 74.8742 165.205 76.8178 165.966L77 165.5ZM72.5 146L72.976 146.153C75.229 139.144 78.5894 127.51 81.5178 117.262C84.4523 106.993 86.9443 98.1477 87.4711 96.6677L87 96.5L86.5289 96.3323C85.988 97.8523 83.4799 106.757 80.5563 116.988C77.6267 127.24 74.271 138.856 72.024 145.847L72.5 146ZM95.5 96.5L95.0182 96.6336L114.018 165.134L114.5 165L114.982 164.866L95.9818 96.3664L95.5 96.5ZM114.5 165L114.026 165.158C114.283 165.93 114.802 167.232 115.592 168.351C116.369 169.453 117.5 170.5 119 170.5V170V169.5C118 169.5 117.131 168.797 116.408 167.774C115.698 166.768 115.217 165.57 114.974 164.842L114.5 165ZM162.5 170.5L162.506 170L119.006 169.5L119 170L118.994 170.5L162.494 171L162.5 170.5ZM147 159.5L147.403 159.203C145.704 156.898 143.601 151.939 141.385 145.685C139.179 139.456 136.885 132.013 134.793 124.798C130.608 110.37 127.235 96.8771 126.985 95.8787L126.5 96L126.015 96.1213C126.265 97.1229 129.642 110.63 133.832 125.077C135.927 132.3 138.227 139.763 140.443 146.018C142.649 152.249 144.796 157.352 146.597 159.797L147 159.5ZM166.5 54L167 54.0091C167.253 40.0735 161.031 31.7955 153.842 26.9601C146.682 22.1446 138.587 20.7549 135.036 20.5013L135 21L134.964 21.4987C138.413 21.7451 146.318 23.1054 153.283 27.7899C160.219 32.4545 166.247 40.4265 166 53.9909L166.5 54ZM135 21L135.036 20.5013C129.417 20.0999 81.816 19.833 58.007 19.5L58 20L57.993 20.5C81.8507 20.8336 129.383 21.1001 134.964 21.4987L135 21ZM162.5 167H162V170.5H162.5H163V167H162.5ZM162.5 167L162.475 166.501C159.233 166.663 151.675 165.417 147.412 159.217L147 159.5L146.588 159.783C151.125 166.383 159.1 167.671 162.525 167.499L162.5 167ZM87.6912 170H88.1912V167H87.6912H87.1912V170H87.6912ZM87.6912 167V166.5C86.5937 166.5 84.7397 166.426 82.7653 166.203C80.7838 165.98 78.7173 165.61 77.1756 165.032L77 165.5L76.8244 165.968C78.4827 166.59 80.6466 166.97 82.6531 167.197C84.6668 167.424 86.5583 167.5 87.6912 167.5V167ZM56.5 20V20.5H58V20V19.5H56.5V20ZM56.5 24H57V20H56.5H56V24H56.5ZM129.5 92.5V92C128.788 92 127.737 92.1878 126.941 92.8049C126.534 93.1206 126.192 93.5513 126.011 94.1197C125.83 94.686 125.82 95.3522 126.015 96.1229L126.5 96L126.985 95.8771C126.825 95.2478 126.851 94.7765 126.963 94.424C127.075 94.0737 127.284 93.8044 127.554 93.5951C128.112 93.1622 128.916 93 129.5 93V92.5ZM166.5 54L166.001 54.0338C166.652 63.6318 160.339 84.8702 129.388 92.0128L129.5 92.5L129.612 92.9872C161.061 85.7298 167.681 64.0349 166.999 53.9662L166.5 54ZM87 96.5V97H95.5V96.5V96H87V96.5ZM132.5 60.5L132.994 60.5752C134.747 49.0551 134.268 41.931 132.142 37.2917C129.994 32.605 126.209 30.5425 121.658 29.0257L121.5 29.5L121.342 29.9743C125.791 31.4575 129.256 33.395 131.233 37.7083C133.232 42.069 133.753 48.9449 132.006 60.4248L132.5 60.5ZM104.5 90L104.533 90.4989C108.427 90.2393 114.806 87.5282 120.56 82.5366C126.331 77.5303 131.533 70.1798 132.994 60.5752L132.5 60.5L132.006 60.4248C130.588 69.7439 125.539 76.8934 119.905 81.7812C114.254 86.6837 108.073 89.2607 104.467 89.5011L104.5 90ZM88.5 90L88.9788 90.144L107.479 28.644L107 28.5L106.521 28.356L88.0212 89.856L88.5 90ZM107 28.5L107.076 28.9942C109.188 28.6693 115.45 28.4041 121.371 29.9831L121.5 29.5L121.629 29.0169C115.55 27.3959 109.146 27.664 106.924 28.0058L107 28.5ZM104.5 90V89.5H88.5V90V90.5H104.5V90ZM73 34H73.5C73.5 30.4348 72.7346 27.6074 70.1041 25.7188C67.5286 23.8698 63.2615 23 56.5 23L56.5 23.5L56.5 24C63.2385 24 67.2214 24.8802 69.5209 26.5312C71.7654 28.1426 72.5 30.5652 72.5 34H73ZM73 34L72.5191 33.8632L38.5191 153.363L39 153.5L39.4809 153.637L73.4809 34.1368L73 34ZM39 153.5L38.5211 153.356C37.7971 155.77 36.0523 158.998 32.6873 161.525C29.33 164.046 24.3244 165.895 17.027 165.501L17 166L16.973 166.499C24.4756 166.905 29.72 165.004 33.2877 162.325C36.8477 159.652 38.7029 156.23 39.4789 153.644L39 153.5ZM17 166H16.5V169.5H17H17.5V166H17ZM17 169.5V170H18.5V169.5V169H17V169.5ZM87.6912 170L87.6948 169.5L18.5036 169L18.5 169.5L18.4964 170L87.6876 170.5L87.6912 170ZM56.5 20H56V23.5H56.5H57V20H56.5ZM173.5 212.423L173.986 212.54C174.232 211.517 176.226 204.691 178.167 198.094C179.136 194.802 180.089 191.575 180.8 189.17C181.155 187.968 181.45 186.971 181.656 186.275C181.759 185.928 181.84 185.655 181.895 185.469C181.923 185.376 181.944 185.305 181.958 185.257C181.965 185.233 181.97 185.215 181.974 185.203C181.976 185.197 181.977 185.192 181.978 185.189C181.978 185.187 181.979 185.186 181.979 185.185C181.979 185.185 181.979 185.185 181.979 185.185C181.979 185.184 181.979 185.184 181.5 185.042C181.021 184.9 181.021 184.9 181.021 184.9C181.02 184.901 181.02 184.901 181.02 184.901C181.02 184.902 181.02 184.903 181.019 184.905C181.018 184.908 181.017 184.912 181.015 184.919C181.012 184.931 181.006 184.949 180.999 184.973C180.985 185.021 180.964 185.092 180.936 185.185C180.881 185.371 180.8 185.644 180.697 185.992C180.491 186.688 180.196 187.684 179.841 188.887C179.13 191.291 178.177 194.519 177.208 197.812C175.274 204.386 173.268 211.251 173.014 212.306L173.5 212.423ZM181.5 185.042L181.541 185.541C184.098 185.332 185.601 185.576 186.52 186.456C187.451 187.349 187.929 189.033 188 192.152L188.5 192.141L189 192.129C188.929 189.01 188.465 186.935 187.212 185.734C185.946 184.521 184.02 184.335 181.459 184.544L181.5 185.042ZM188.5 192.141L188.979 192.283L191.979 182.142L191.5 182L191.021 181.858L188.021 191.999L188.5 192.141ZM165 182L164.527 181.837L161.027 191.978L161.5 192.141L161.973 192.304L165.473 182.163L165 182ZM161.5 192.141L161.882 192.464C163.424 190.641 165.145 189.022 166.841 187.8C168.545 186.573 170.19 185.771 171.583 185.535L171.5 185.042L171.417 184.549C169.81 184.821 168.02 185.718 166.257 186.989C164.486 188.265 162.706 189.942 161.118 191.818L161.5 192.141ZM171.5 185.042L171.583 185.535C173.072 185.284 173.753 185.296 174.042 185.345C174.185 185.369 174.18 185.394 174.13 185.353C174.102 185.329 174.066 185.289 174.039 185.229C174.026 185.199 174.016 185.169 174.009 185.137C174.006 185.121 174.004 185.105 174.002 185.089C174.001 185.081 174.001 185.073 174.001 185.066C174 185.062 174 185.058 174 185.054C174 185.052 174 185.05 174 185.048C174 185.047 174 185.046 174 185.045C174 185.044 174 185.042 174.5 185.042C175 185.042 175 185.041 175 185.039C175 185.039 175 185.037 175 185.036C175 185.034 175 185.032 175 185.03C175 185.026 175 185.022 174.999 185.018C174.999 185.01 174.998 185.001 174.998 184.993C174.996 184.975 174.993 184.956 174.989 184.937C174.981 184.898 174.968 184.856 174.949 184.814C174.91 184.729 174.851 184.653 174.776 184.589C174.633 184.468 174.44 184.398 174.208 184.359C173.747 184.281 172.928 184.294 171.417 184.549L171.5 185.042ZM174.5 185.042C174.023 184.891 174.023 184.891 174.023 184.891C174.023 184.892 174.023 184.892 174.023 184.892C174.023 184.893 174.022 184.895 174.022 184.896C174.021 184.9 174.019 184.905 174.017 184.912C174.013 184.925 174.006 184.946 173.998 184.973C173.981 185.026 173.955 185.106 173.922 185.21C173.856 185.418 173.759 185.724 173.635 186.114C173.387 186.893 173.032 188.008 172.602 189.35C171.743 192.036 170.587 195.631 169.4 199.275C168.212 202.918 166.994 206.607 166.011 209.48C165.52 210.916 165.088 212.146 164.748 213.062C164.578 213.52 164.433 213.897 164.315 214.18C164.191 214.478 164.114 214.634 164.082 214.683L164.5 214.958L164.918 215.232C165.011 215.091 165.121 214.847 165.239 214.563C165.363 214.263 165.514 213.873 165.686 213.409C166.03 212.482 166.465 211.243 166.957 209.804C167.943 206.924 169.163 203.23 170.35 199.584C171.538 195.939 172.695 192.341 173.554 189.655C173.984 188.312 174.34 187.197 174.588 186.417C174.712 186.027 174.809 185.721 174.875 185.513C174.908 185.409 174.934 185.329 174.951 185.275C174.959 185.248 174.966 185.228 174.97 185.214C174.972 185.207 174.974 185.202 174.975 185.199C174.976 185.197 174.976 185.196 174.976 185.195C174.976 185.194 174.976 185.194 174.977 185.194C174.977 185.193 174.977 185.193 174.5 185.042ZM165 182V182.5H191.5V182V181.5H165V182ZM160.5 216.479H160V218H160.5H161V216.479H160.5ZM160.5 218V218.5H177V218V217.5H160.5V218ZM160.5 216.479L160.555 216.976C160.993 216.927 161.38 216.904 161.778 216.87C162.164 216.836 162.548 216.792 162.915 216.699C163.684 216.504 164.346 216.102 164.918 215.232L164.5 214.958L164.082 214.683C163.654 215.335 163.206 215.594 162.669 215.73C162.384 215.802 162.066 215.841 161.692 215.873C161.329 215.905 160.896 215.932 160.445 215.982L160.5 216.479ZM173.5 212.423L173.014 212.306C172.76 213.361 172.677 214.459 173.318 215.283C173.957 216.106 175.171 216.472 177 216.472V215.972V215.472C175.229 215.472 174.443 215.102 174.107 214.67C173.773 214.239 173.74 213.562 173.986 212.54L173.5 212.423ZM93.5 200V200.5H107.5V200V199.5H93.5V200ZM107.5 200H107V201H107.5H108V200H107.5ZM107.5 201L107.438 200.504C105.824 200.706 103.54 202.266 102.512 206.891L103 207L103.488 207.108C104.46 202.734 106.51 201.628 107.562 201.496L107.5 201ZM103 207L102.512 206.891C102.083 208.822 101.348 211.26 100.123 213.266C98.8985 215.271 97.2321 216.774 94.9502 217.002L95 217.5L95.0497 217.997C97.7679 217.726 99.6676 215.931 100.976 213.787C102.285 211.644 103.049 209.083 103.488 207.108L103 207ZM86 217.5V218H95V217.5V217H86V217.5ZM86 217.5L86.0822 217.007C83.1702 216.521 80.6482 215.313 78.7339 213.339C76.8203 211.366 75.4839 208.596 74.9956 204.934L74.5 205L74.0044 205.066C74.5161 208.904 75.9297 211.884 78.016 214.036C80.1018 216.186 82.8298 217.478 85.9178 217.993L86 217.5ZM74.5 205L74.9981 204.956C74.5122 199.45 77.1347 187.4 91.6305 183.483L91.5 183L91.3695 182.517C76.2653 186.6 73.4877 199.216 74.0019 205.044L74.5 205ZM91.5 183L91.6085 183.488C93.8065 183 96.313 182.842 98.6726 183.009C101.038 183.176 103.217 183.667 104.776 184.447L105 184L105.224 183.553C103.504 182.693 101.183 182.184 98.7432 182.011C96.2976 181.838 93.6935 182 91.3915 182.512L91.5 183ZM107 193L107.491 193.093L109.491 182.593L109 182.5L108.509 182.406L106.509 192.906L107 193ZM109 182.5V182H108.5V182.5V183H109V182.5ZM108.5 182.5L108.146 182.146C107.696 182.597 106.416 183.5 105 183.5V184V184.5C106.784 184.5 108.304 183.403 108.854 182.853L108.5 182.5ZM107 193V192.5H106V193V193.5H107V193ZM106 193L106.499 193.029C106.586 191.55 106.354 189.305 105.357 187.359C104.347 185.388 102.541 183.716 99.5356 183.501L99.5 184L99.4644 184.499C102.059 184.684 103.586 186.095 104.468 187.815C105.362 189.561 105.58 191.617 105.501 192.971L106 193ZM82.5 199.5L82.0192 199.363C81.519 201.113 80.7415 203.947 81.0653 206.99C81.3922 210.063 82.8391 213.327 86.7226 215.916L87 215.5L87.2774 215.084C83.6609 212.673 82.3578 209.687 82.0597 206.885C81.7585 204.053 82.481 201.387 82.9808 199.637L82.5 199.5ZM99.5 184L99.5356 183.501C97.746 183.373 95.7462 183.967 93.8562 184.918C91.9582 185.874 90.124 187.214 88.6519 188.641L89 189L89.3481 189.359C90.7527 187.997 92.5048 186.718 94.3058 185.811C96.1148 184.901 97.9267 184.389 99.4644 184.499L99.5 184ZM89 189L88.6519 188.641C85.2622 191.928 83.0445 195.774 82.0192 199.363L82.5 199.5L82.9808 199.637C83.9555 196.226 86.0777 192.53 89.3481 189.359L89 189ZM87 215.5L86.8244 215.968C88.8791 216.739 90.4989 216.897 91.8937 216.479C93.2862 216.061 94.3649 215.094 95.3904 213.812L95 213.5L94.6095 213.188C93.6351 214.406 92.7138 215.189 91.6063 215.521C90.5011 215.853 89.1209 215.761 87.1756 215.032L87 215.5ZM93.5 200H93V201H93.5H94V200H93.5ZM93.5 201L93.4105 201.492C94.251 201.645 95.1757 202.04 95.8111 202.842C96.4369 203.632 96.8439 204.895 96.5068 206.918L97 207L97.4932 207.082C97.8643 204.855 97.4381 203.285 96.595 202.221C95.7618 201.169 94.5823 200.689 93.5894 200.508L93.5 201ZM97 207L96.5068 206.918C96.2637 208.376 95.7745 209.97 95.3406 211.21C95.1244 211.827 94.9238 212.352 94.7773 212.722C94.7041 212.907 94.6445 213.053 94.6034 213.153C94.5828 213.202 94.5669 213.24 94.5562 213.266C94.5508 213.278 94.5468 213.288 94.5441 213.294C94.5428 213.297 94.5418 213.3 94.5412 213.301C94.5409 213.302 94.5407 213.302 94.5405 213.303C94.5405 213.303 94.5404 213.303 94.5404 213.303C94.5404 213.303 94.5404 213.303 94.5404 213.303C94.5404 213.303 94.5404 213.303 95 213.5C95.4596 213.697 95.4596 213.697 95.4596 213.697C95.4596 213.697 95.4597 213.697 95.4597 213.697C95.4598 213.696 95.4599 213.696 95.46 213.696C95.4602 213.695 95.4605 213.695 95.4609 213.694C95.4618 213.692 95.4629 213.689 95.4645 213.685C95.4675 213.678 95.472 213.668 95.4777 213.654C95.4893 213.627 95.506 213.587 95.5275 213.535C95.5703 213.431 95.6319 213.28 95.7071 213.09C95.8575 212.71 96.063 212.173 96.2844 211.54C96.7255 210.28 97.2363 208.624 97.4932 207.082L97 207ZM346.5 182V181.5H345.5V182V182.5H346.5V182ZM345.5 182L345.01 181.902C344.932 182.29 344.796 182.726 344.596 183.051C344.395 183.381 344.195 183.5 344 183.5V184V184.5C344.7 184.5 345.166 184.036 345.449 183.574C345.735 183.107 345.901 182.543 345.99 182.098L345.5 182ZM344 184V183.5C343.68 183.5 343.191 183.428 342.567 183.302C341.952 183.179 341.242 183.011 340.489 182.835C339.001 182.487 337.335 182.101 336.038 182.001L336 182.5L335.962 182.999C337.165 183.091 338.749 183.455 340.261 183.809C341.008 183.984 341.736 184.155 342.37 184.283C342.996 184.409 343.57 184.5 344 184.5V184ZM336 182.5L336.038 182.001C332.729 181.747 329.377 182.248 326.948 183.899C324.478 185.578 323.041 188.394 323.503 192.555L324 192.5L324.497 192.445C324.07 188.606 325.383 186.172 327.51 184.726C329.679 183.252 332.771 182.753 335.962 182.999L336 182.5ZM324 192.5L323.503 192.555C324.028 197.276 327.253 199.48 328.649 200.856L329 200.5L329.351 200.144C327.826 198.64 324.972 196.724 324.497 192.445L324 192.5ZM329 200.5L328.649 200.856C331.521 203.687 333.167 206.177 333.896 208.229C334.622 210.277 334.426 211.846 333.69 212.927C332.95 214.015 331.586 214.722 329.747 214.877C327.91 215.031 325.644 214.628 323.203 213.543L323 214L322.797 214.457C325.356 215.594 327.791 216.045 329.831 215.873C331.868 215.702 333.557 214.901 334.517 213.489C335.483 212.07 335.637 210.146 334.838 207.895C334.041 205.649 332.284 203.035 329.351 200.144L329 200.5ZM323 214L323.203 213.543C321.596 212.829 320.792 211.414 320.451 209.855C320.108 208.289 320.25 206.641 320.487 205.612L320 205.5L319.513 205.388C319.25 206.526 319.092 208.327 319.474 210.07C319.858 211.819 320.804 213.571 322.797 214.457L323 214ZM320 205.5V205H318.5V205.5V206H320V205.5ZM318.5 205.5L318.011 205.398L315.511 217.398L316 217.5L316.489 217.602L318.989 205.602L318.5 205.5ZM316 217.5V218H316.5V217.5V217H316V217.5ZM316.5 217.5L316.575 217.994C316.756 217.967 316.92 217.897 317.058 217.83C317.19 217.765 317.351 217.675 317.494 217.599C317.796 217.439 318.169 217.259 318.689 217.124C319.73 216.854 321.432 216.748 324.379 217.485L324.5 217L324.621 216.515C321.568 215.752 319.689 215.832 318.439 216.156C317.814 216.318 317.364 216.536 317.025 216.716C316.847 216.81 316.733 216.875 316.618 216.931C316.509 216.985 316.453 217.001 316.425 217.006L316.5 217.5ZM324.5 217L324.379 217.485C327.942 218.376 331.792 218.077 334.887 216.998C337.949 215.93 340.428 214.036 340.987 211.612L340.5 211.5L340.013 211.388C339.572 213.301 337.514 215.023 334.557 216.053C331.634 217.073 327.983 217.355 324.621 216.515L324.5 217ZM334.5 185L334.445 184.503C332.843 184.681 331.622 185.35 330.841 186.374C330.064 187.392 329.763 188.707 329.895 190.107C330.156 192.899 332.133 196.108 335.73 198.421L336 198L336.27 197.579C332.867 195.392 331.117 192.431 330.89 190.013C330.777 188.809 331.042 187.758 331.636 186.98C332.226 186.207 333.18 185.649 334.555 185.497L334.5 185ZM340.5 211.5L340.987 211.612C341.491 209.427 341.882 206.924 341.356 204.46C340.824 201.971 339.366 199.569 336.27 197.579L336 198L335.73 198.421C338.612 200.273 339.904 202.453 340.378 204.669C340.857 206.911 340.509 209.236 340.013 211.388L340.5 211.5ZM344 193.5C344.5 193.494 344.5 193.494 344.5 193.494C344.5 193.494 344.5 193.494 344.5 193.494C344.5 193.494 344.5 193.494 344.5 193.494C344.5 193.494 344.5 193.494 344.5 193.493C344.5 193.492 344.5 193.491 344.5 193.489C344.5 193.485 344.5 193.479 344.5 193.471C344.5 193.454 344.5 193.429 344.5 193.395C344.5 193.328 344.501 193.229 344.504 193.101C344.509 192.844 344.522 192.474 344.551 192.022C344.609 191.117 344.732 189.89 344.99 188.598L344.5 188.5L344.01 188.402C343.74 189.75 343.613 191.023 343.553 191.958C343.523 192.426 343.51 192.811 343.504 193.079C343.501 193.214 343.5 193.319 343.5 193.392C343.5 193.428 343.5 193.456 343.5 193.475C343.5 193.485 343.5 193.492 343.5 193.497C343.5 193.5 343.5 193.502 343.5 193.503C343.5 193.504 343.5 193.505 343.5 193.505C343.5 193.505 343.5 193.505 343.5 193.506C343.5 193.506 343.5 193.506 343.5 193.506C343.5 193.506 343.5 193.506 344 193.5ZM344.5 188.5L344.99 188.598C345.234 187.381 345.725 185.781 346.162 184.471C346.379 183.819 346.581 183.244 346.728 182.833C346.802 182.627 346.862 182.462 346.904 182.349C346.925 182.293 346.941 182.249 346.952 182.22C346.957 182.205 346.961 182.194 346.964 182.186C346.965 182.183 346.967 182.18 346.967 182.178C346.968 182.177 346.968 182.177 346.968 182.176C346.968 182.176 346.968 182.176 346.968 182.176C346.968 182.176 346.968 182.176 346.968 182.176C346.968 182.176 346.968 182.176 346.5 182C346.032 181.824 346.032 181.824 346.032 181.825C346.032 181.825 346.032 181.825 346.032 181.825C346.032 181.825 346.032 181.825 346.031 181.825C346.031 181.826 346.031 181.827 346.031 181.828C346.03 181.83 346.029 181.833 346.027 181.837C346.024 181.845 346.02 181.856 346.014 181.871C346.003 181.902 345.986 181.947 345.965 182.004C345.923 182.12 345.862 182.287 345.787 182.495C345.638 182.912 345.433 183.494 345.213 184.154C344.775 185.469 344.266 187.119 344.01 188.402L344.5 188.5ZM344 193.5L344.494 193.422C344.16 191.315 343.182 188.934 341.525 187.151C339.855 185.354 337.49 184.165 334.445 184.503L334.5 185L334.555 185.497C337.243 185.199 339.307 186.233 340.793 187.832C342.292 189.444 343.198 191.631 343.506 193.578L344 193.5ZM305.5 182V181.5H304.5V182V182.5H305.5V182ZM304.5 182L304.01 181.902C303.932 182.29 303.796 182.726 303.596 183.051C303.395 183.381 303.195 183.5 303 183.5V184V184.5C303.7 184.5 304.166 184.036 304.449 183.574C304.735 183.107 304.901 182.543 304.99 182.098L304.5 182ZM303 184V183.5C302.68 183.5 302.191 183.428 301.567 183.302C300.952 183.179 300.242 183.011 299.489 182.835C298.001 182.487 296.335 182.101 295.038 182.001L295 182.5L294.962 182.999C296.165 183.091 297.749 183.455 299.261 183.809C300.008 183.984 300.736 184.155 301.37 184.283C301.996 184.409 302.57 184.5 303 184.5V184ZM295 182.5L295.038 182.001C291.729 181.747 288.377 182.248 285.948 183.899C283.478 185.578 282.041 188.394 282.503 192.555L283 192.5L283.497 192.445C283.07 188.606 284.383 186.172 286.51 184.726C288.679 183.252 291.771 182.753 294.962 182.999L295 182.5ZM283 192.5L282.503 192.555C283.028 197.276 286.253 199.48 287.649 200.856L288 200.5L288.351 200.144C286.826 198.64 283.972 196.724 283.497 192.445L283 192.5ZM288 200.5L287.649 200.856C290.521 203.687 292.167 206.177 292.896 208.229C293.622 210.277 293.426 211.846 292.69 212.927C291.95 214.015 290.586 214.722 288.747 214.877C286.91 215.031 284.644 214.628 282.203 213.543L282 214L281.797 214.457C284.356 215.594 286.791 216.045 288.831 215.873C290.868 215.702 292.557 214.901 293.517 213.489C294.483 212.07 294.637 210.146 293.838 207.895C293.041 205.649 291.284 203.035 288.351 200.144L288 200.5ZM282 214L282.203 213.543C280.596 212.829 279.792 211.414 279.451 209.855C279.108 208.289 279.25 206.641 279.487 205.612L279 205.5L278.513 205.388C278.25 206.526 278.092 208.327 278.474 210.07C278.858 211.819 279.804 213.571 281.797 214.457L282 214ZM279 205.5V205H277.5V205.5V206H279V205.5ZM277.5 205.5L277.011 205.398L274.511 217.398L275 217.5L275.489 217.602L277.989 205.602L277.5 205.5ZM275 217.5V218H275.5V217.5V217H275V217.5ZM275.5 217.5L275.575 217.994C275.756 217.967 275.92 217.897 276.058 217.83C276.19 217.765 276.351 217.675 276.494 217.599C276.796 217.439 277.169 217.259 277.689 217.124C278.73 216.854 280.432 216.748 283.379 217.485L283.5 217L283.621 216.515C280.568 215.752 278.689 215.832 277.439 216.156C276.814 216.318 276.364 216.536 276.025 216.716C275.847 216.81 275.733 216.875 275.618 216.931C275.509 216.985 275.453 217.001 275.425 217.006L275.5 217.5ZM283.5 217L283.379 217.485C286.942 218.376 290.792 218.077 293.887 216.998C296.949 215.93 299.428 214.036 299.987 211.612L299.5 211.5L299.013 211.388C298.572 213.301 296.514 215.023 293.557 216.053C290.634 217.073 286.983 217.355 283.621 216.515L283.5 217ZM293.5 185L293.445 184.503C291.843 184.681 290.622 185.35 289.841 186.374C289.064 187.392 288.763 188.707 288.895 190.107C289.156 192.899 291.133 196.108 294.73 198.421L295 198L295.27 197.579C291.867 195.392 290.117 192.431 289.89 190.013C289.777 188.809 290.042 187.758 290.636 186.98C291.226 186.207 292.18 185.649 293.555 185.497L293.5 185ZM299.5 211.5L299.987 211.612C300.491 209.427 300.882 206.924 300.356 204.46C299.824 201.971 298.366 199.569 295.27 197.579L295 198L294.73 198.421C297.612 200.273 298.904 202.453 299.378 204.669C299.857 206.911 299.509 209.236 299.013 211.388L299.5 211.5ZM303 193.5C303.5 193.494 303.5 193.494 303.5 193.494C303.5 193.494 303.5 193.494 303.5 193.494C303.5 193.494 303.5 193.494 303.5 193.494C303.5 193.494 303.5 193.494 303.5 193.493C303.5 193.492 303.5 193.491 303.5 193.489C303.5 193.485 303.5 193.479 303.5 193.471C303.5 193.454 303.5 193.429 303.5 193.395C303.5 193.328 303.501 193.229 303.504 193.101C303.509 192.844 303.522 192.474 303.551 192.022C303.609 191.117 303.732 189.89 303.99 188.598L303.5 188.5L303.01 188.402C302.74 189.75 302.613 191.023 302.553 191.958C302.523 192.426 302.51 192.811 302.504 193.079C302.501 193.214 302.5 193.319 302.5 193.392C302.5 193.428 302.5 193.456 302.5 193.475C302.5 193.485 302.5 193.492 302.5 193.497C302.5 193.5 302.5 193.502 302.5 193.503C302.5 193.504 302.5 193.505 302.5 193.505C302.5 193.505 302.5 193.505 302.5 193.506C302.5 193.506 302.5 193.506 302.5 193.506C302.5 193.506 302.5 193.506 303 193.5ZM303.5 188.5L303.99 188.598C304.234 187.381 304.725 185.781 305.162 184.471C305.379 183.819 305.581 183.244 305.728 182.833C305.802 182.627 305.862 182.462 305.904 182.349C305.925 182.293 305.941 182.249 305.952 182.22C305.957 182.205 305.961 182.194 305.964 182.186C305.965 182.183 305.967 182.18 305.967 182.178C305.968 182.177 305.968 182.177 305.968 182.176C305.968 182.176 305.968 182.176 305.968 182.176C305.968 182.176 305.968 182.176 305.968 182.176C305.968 182.176 305.968 182.176 305.5 182C305.032 181.824 305.032 181.824 305.032 181.825C305.032 181.825 305.032 181.825 305.032 181.825C305.032 181.825 305.032 181.825 305.031 181.825C305.031 181.826 305.031 181.827 305.031 181.828C305.03 181.83 305.029 181.833 305.027 181.837C305.024 181.845 305.02 181.856 305.014 181.871C305.003 181.902 304.986 181.947 304.965 182.004C304.923 182.12 304.862 182.287 304.787 182.495C304.638 182.912 304.433 183.494 304.213 184.154C303.775 185.469 303.266 187.119 303.01 188.402L303.5 188.5ZM303 193.5L303.494 193.422C303.16 191.315 302.182 188.934 300.525 187.151C298.855 185.354 296.49 184.165 293.445 184.503L293.5 185L293.555 185.497C296.243 185.199 298.307 186.233 299.793 187.832C301.292 189.444 302.198 191.631 302.506 193.578L303 193.5ZM409.5 182L409.854 181.646L408.854 180.646L408.5 181L408.146 181.354L409.146 182.354L409.5 182ZM408.5 181L408.01 180.902C407.926 181.323 407.781 182.034 407.555 182.637C407.441 182.94 407.318 183.182 407.195 183.34C407.068 183.502 407.002 183.5 407 183.5V184V184.5C407.446 184.5 407.77 184.227 407.982 183.957C408.197 183.682 408.363 183.331 408.491 182.988C408.75 182.299 408.908 181.511 408.99 181.098L408.5 181ZM407 184V183.5C406.7 183.5 406.227 183.405 405.602 183.233C404.988 183.063 404.281 182.835 403.526 182.596C402.042 182.125 400.358 181.603 399.038 181.501L399 182L398.962 182.499C400.142 182.589 401.708 183.068 403.224 183.549C403.969 183.785 404.699 184.021 405.336 184.197C405.96 184.369 406.55 184.5 407 184.5V184ZM399 182L399.038 181.501C395.713 181.246 392.359 181.879 389.933 183.659C387.477 185.463 386.041 188.395 386.503 192.555L387 192.5L387.497 192.445C387.07 188.605 388.385 186.037 390.525 184.466C392.697 182.871 395.787 182.254 398.962 182.499L399 182ZM387 192.5L386.503 192.555C387.028 197.276 390.253 199.48 391.649 200.856L392 200.5L392.351 200.144C390.826 198.64 387.972 196.724 387.497 192.445L387 192.5ZM392 200.5L391.649 200.856C394.521 203.687 396.167 206.177 396.896 208.229C397.622 210.277 397.426 211.846 396.69 212.927C395.95 214.015 394.586 214.722 392.747 214.877C390.91 215.031 388.644 214.628 386.203 213.543L386 214L385.797 214.457C388.356 215.594 390.791 216.045 392.831 215.873C394.868 215.702 396.557 214.901 397.517 213.489C398.483 212.07 398.637 210.146 397.838 207.895C397.041 205.649 395.284 203.035 392.351 200.144L392 200.5ZM386 214L386.203 213.543C384.596 212.829 383.792 211.414 383.451 209.855C383.108 208.289 383.25 206.641 383.487 205.612L383 205.5L382.513 205.388C382.25 206.526 382.092 208.327 382.474 210.07C382.858 211.819 383.804 213.571 385.797 214.457L386 214ZM383 205.5V205H381.5V205.5V206H383V205.5ZM379 217.5V218H379.5V217.5V217H379V217.5ZM379.5 217.5L379.575 217.994C379.756 217.967 379.92 217.897 380.058 217.83C380.19 217.765 380.351 217.675 380.494 217.599C380.796 217.439 381.169 217.259 381.689 217.124C382.73 216.854 384.432 216.748 387.379 217.485L387.5 217L387.621 216.515C384.568 215.752 382.689 215.832 381.439 216.156C380.814 216.318 380.364 216.536 380.025 216.716C379.847 216.81 379.733 216.875 379.618 216.931C379.509 216.985 379.453 217.001 379.425 217.006L379.5 217.5ZM387.5 217L387.379 217.485C390.942 218.376 394.792 218.077 397.887 216.998C400.949 215.93 403.428 214.036 403.987 211.612L403.5 211.5L403.013 211.388C402.572 213.301 400.514 215.023 397.557 216.053C394.634 217.073 390.983 217.355 387.621 216.515L387.5 217ZM397.5 185L397.445 184.503C395.843 184.681 394.622 185.35 393.841 186.374C393.064 187.392 392.763 188.707 392.895 190.107C393.156 192.899 395.133 196.108 398.73 198.421L399 198L399.27 197.579C395.867 195.392 394.117 192.431 393.89 190.013C393.777 188.809 394.042 187.758 394.636 186.98C395.226 186.207 396.18 185.649 397.555 185.497L397.5 185ZM403.5 211.5L403.987 211.612C404.491 209.427 404.882 206.924 404.356 204.46C403.824 201.971 402.366 199.569 399.27 197.579L399 198L398.73 198.421C401.612 200.273 402.904 202.453 403.378 204.669C403.857 206.911 403.509 209.236 403.013 211.388L403.5 211.5ZM407 193.5C407.5 193.494 407.5 193.494 407.5 193.494C407.5 193.494 407.5 193.494 407.5 193.494C407.5 193.494 407.5 193.494 407.5 193.494C407.5 193.494 407.5 193.494 407.5 193.493C407.5 193.492 407.5 193.491 407.5 193.489C407.5 193.485 407.5 193.479 407.5 193.471C407.5 193.454 407.5 193.429 407.5 193.395C407.5 193.328 407.501 193.229 407.504 193.101C407.509 192.844 407.522 192.474 407.551 192.022C407.609 191.117 407.732 189.89 407.99 188.598L407.5 188.5L407.01 188.402C406.74 189.75 406.613 191.023 406.553 191.958C406.523 192.426 406.51 192.811 406.504 193.079C406.501 193.214 406.5 193.319 406.5 193.392C406.5 193.428 406.5 193.456 406.5 193.475C406.5 193.485 406.5 193.492 406.5 193.497C406.5 193.5 406.5 193.502 406.5 193.503C406.5 193.504 406.5 193.505 406.5 193.505C406.5 193.505 406.5 193.505 406.5 193.506C406.5 193.506 406.5 193.506 406.5 193.506C406.5 193.506 406.5 193.506 407 193.5ZM407.5 188.5L407.99 188.598C408.234 187.381 408.725 185.781 409.162 184.471C409.379 183.819 409.581 183.244 409.728 182.833C409.802 182.627 409.862 182.462 409.904 182.349C409.925 182.293 409.941 182.249 409.952 182.22C409.957 182.205 409.961 182.194 409.964 182.186C409.965 182.183 409.967 182.18 409.967 182.178C409.968 182.177 409.968 182.177 409.968 182.176C409.968 182.176 409.968 182.176 409.968 182.176C409.968 182.176 409.968 182.176 409.968 182.176C409.968 182.176 409.968 182.176 409.5 182C409.032 181.824 409.032 181.824 409.032 181.825C409.032 181.825 409.032 181.825 409.032 181.825C409.032 181.825 409.032 181.825 409.031 181.825C409.031 181.826 409.031 181.827 409.031 181.828C409.03 181.83 409.029 181.833 409.027 181.837C409.024 181.845 409.02 181.856 409.014 181.871C409.003 181.902 408.986 181.947 408.965 182.004C408.923 182.12 408.862 182.287 408.787 182.495C408.638 182.912 408.433 183.494 408.213 184.154C407.775 185.469 407.266 187.119 407.01 188.402L407.5 188.5ZM407 193.5L407.494 193.422C407.16 191.315 406.182 188.934 404.525 187.151C402.855 185.354 400.49 184.165 397.445 184.503L397.5 185L397.555 185.497C400.243 185.199 402.307 186.233 403.793 187.832C405.292 189.444 406.198 191.631 406.506 193.578L407 193.5ZM379 217.5L379.489 217.602L381.989 205.602L381.5 205.5L381.011 205.398L378.511 217.398L379 217.5ZM157 182V181.5H156.016V182V182.5H157V182ZM156.016 182L155.526 181.905C155.449 182.3 155.314 182.744 155.117 183.075C154.916 183.414 154.721 183.528 154.541 183.528V184.028V184.528C155.241 184.528 155.701 184.05 155.977 183.586C156.257 183.115 156.42 182.545 156.507 182.095L156.016 182ZM154.541 184.028V183.528C154.228 183.528 153.75 183.455 153.136 183.328C152.531 183.203 151.834 183.033 151.093 182.854C149.629 182.501 147.989 182.11 146.712 182.008L146.672 182.507L146.633 183.005C147.815 183.099 149.371 183.468 150.858 183.826C151.593 184.004 152.309 184.178 152.933 184.307C153.549 184.435 154.116 184.528 154.541 184.528V184.028ZM146.672 182.507L146.712 182.008C143.453 181.75 140.151 182.259 137.758 183.935C135.327 185.638 133.918 188.49 134.372 192.699L134.869 192.645L135.366 192.592C134.945 188.69 136.241 186.219 138.332 184.754C140.461 183.262 143.498 182.757 146.633 183.005L146.672 182.507ZM134.869 192.645L134.372 192.699C134.887 197.477 138.055 199.708 139.431 201.106L139.787 200.756L140.143 200.405C138.645 198.883 135.834 196.938 135.366 192.592L134.869 192.645ZM139.787 200.756L139.431 201.106C142.255 203.976 143.875 206.501 144.593 208.585C145.309 210.666 145.116 212.263 144.39 213.364C143.66 214.468 142.322 215.182 140.52 215.338C138.718 215.494 136.493 215.087 134.093 213.988L133.885 214.442L133.677 214.897C136.195 216.051 138.595 216.509 140.606 216.334C142.617 216.16 144.28 215.345 145.224 213.915C146.171 212.481 146.323 210.537 145.538 208.26C144.755 205.986 143.029 203.337 140.143 200.405L139.787 200.756ZM133.885 214.442L134.093 213.988C132.517 213.266 131.724 211.831 131.387 210.245C131.048 208.653 131.188 206.979 131.422 205.934L130.934 205.825L130.446 205.716C130.189 206.867 130.034 208.69 130.408 210.453C130.784 212.221 131.712 213.997 133.677 214.897L133.885 214.442ZM130.934 205.825V205.325H129.459V205.825V206.325H130.934V205.825ZM129.459 205.825L128.969 205.726L126.51 217.892L127 217.991L127.49 218.09L129.949 205.924L129.459 205.825ZM127 217.991V218.491H127.492V217.991V217.491H127V217.991ZM127.492 217.991L127.569 218.485C127.75 218.456 127.914 218.384 128.049 218.316C128.18 218.25 128.339 218.158 128.479 218.082C128.776 217.92 129.141 217.738 129.651 217.602C130.67 217.33 132.34 217.222 135.236 217.968L135.361 217.484L135.485 217C132.48 216.225 130.627 216.306 129.393 216.636C128.776 216.8 128.332 217.022 127.999 217.205C127.824 217.3 127.712 217.366 127.599 217.423C127.491 217.477 127.439 217.493 127.415 217.497L127.492 217.991ZM135.361 217.484L135.236 217.968C138.746 218.872 142.537 218.569 145.584 217.473C148.603 216.389 151.038 214.467 151.586 212.017L151.098 211.908L150.61 211.799C150.175 213.746 148.148 215.489 145.246 216.532C142.374 217.565 138.788 217.851 135.485 217L135.361 217.484ZM145.197 185.041L145.14 184.545C143.558 184.725 142.354 185.407 141.587 186.444C140.824 187.474 140.53 188.802 140.659 190.217C140.915 193.039 142.855 196.292 146.396 198.638L146.672 198.221L146.948 197.804C143.604 195.588 141.878 192.586 141.654 190.126C141.543 188.9 141.805 187.83 142.39 187.039C142.971 186.255 143.908 185.692 145.254 185.538L145.197 185.041ZM151.098 211.908L151.586 212.017C152.082 209.802 152.465 207.268 151.949 204.775C151.427 202.258 149.995 199.823 146.948 197.804L146.672 198.221L146.396 198.638C149.229 200.515 150.502 202.726 150.969 204.978C151.442 207.255 151.099 209.617 150.61 211.799L151.098 211.908ZM154.541 193.659C155.041 193.653 155.041 193.653 155.041 193.653C155.041 193.653 155.041 193.653 155.041 193.653C155.041 193.653 155.041 193.653 155.041 193.653C155.041 193.653 155.041 193.653 155.041 193.652C155.041 193.651 155.041 193.65 155.041 193.648C155.041 193.644 155.041 193.638 155.041 193.629C155.041 193.612 155.041 193.587 155.041 193.553C155.041 193.485 155.042 193.384 155.045 193.254C155.05 192.994 155.063 192.618 155.091 192.159C155.148 191.241 155.269 189.996 155.524 188.685L155.033 188.59L154.542 188.495C154.277 189.86 154.152 191.15 154.093 192.097C154.064 192.571 154.051 192.961 154.045 193.233C154.042 193.369 154.041 193.476 154.041 193.549C154.041 193.586 154.041 193.614 154.041 193.634C154.041 193.643 154.041 193.651 154.041 193.656C154.041 193.659 154.041 193.661 154.041 193.662C154.041 193.663 154.041 193.663 154.041 193.664C154.041 193.664 154.041 193.664 154.041 193.664C154.041 193.664 154.041 193.665 154.041 193.665C154.041 193.665 154.041 193.665 154.541 193.659ZM155.033 188.59L155.524 188.685C155.763 187.45 156.247 185.827 156.677 184.498C156.89 183.837 157.089 183.255 157.234 182.837C157.307 182.629 157.366 182.462 157.407 182.347C157.427 182.29 157.443 182.245 157.454 182.216C157.459 182.201 157.463 182.189 157.466 182.182C157.467 182.178 157.468 182.175 157.469 182.174C157.469 182.173 157.47 182.172 157.47 182.172C157.47 182.171 157.47 182.171 157.47 182.171C157.47 182.171 157.47 182.171 157.47 182.171C157.47 182.171 157.47 182.171 157 182C156.53 181.829 156.53 181.829 156.53 181.829C156.53 181.829 156.53 181.829 156.53 181.829C156.53 181.829 156.53 181.83 156.53 181.83C156.53 181.831 156.529 181.831 156.529 181.832C156.528 181.834 156.527 181.837 156.526 181.841C156.523 181.849 156.518 181.861 156.513 181.877C156.502 181.907 156.486 181.953 156.465 182.011C156.423 182.128 156.363 182.298 156.29 182.509C156.143 182.931 155.942 183.521 155.725 184.191C155.294 185.524 154.794 187.196 154.542 188.495L155.033 188.59ZM154.541 193.659L155.035 193.583C154.707 191.451 153.747 189.039 152.118 187.232C150.476 185.411 148.145 184.201 145.14 184.545L145.197 185.041L145.254 185.538C147.888 185.237 149.913 186.281 151.375 187.902C152.85 189.538 153.743 191.757 154.047 193.735L154.541 193.659ZM376 217H376.5V216.5H376H375.5V217H376ZM376 216.5V216H375V216.5V217H376V216.5ZM375 216.5L374.989 216C374.752 216.005 374.257 215.913 373.822 215.605C373.411 215.314 373.039 214.824 372.999 213.977L372.5 214L372.001 214.023C372.056 215.197 372.598 215.964 373.245 216.422C373.868 216.862 374.576 217.009 375.011 217L375 216.5ZM372.5 214L372.999 213.977C372.905 211.963 373.166 192.688 373.5 183.017L373 183L372.5 182.983C372.167 192.645 371.904 211.962 372.001 214.023L372.5 214ZM373 183H373.5V182H373H372.5V183H373ZM373 182L372.646 181.646L372.146 182.146L372.5 182.5L372.854 182.854L373.354 182.354L373 182ZM372.5 182.5L372.122 182.173L343.622 215.173L344 215.5L344.378 215.827L372.878 182.827L372.5 182.5ZM344 215.5L343.646 215.146L343.146 215.646L343.5 216L343.854 216.354L344.354 215.854L344 215.5ZM343.5 216L343.276 215.553L342.276 216.053L342.5 216.5L342.724 216.947L343.724 216.447L343.5 216ZM342.5 216.5V216H342V216.5V217H342.5V216.5ZM342 216.5H341.5V217H342H342.5V216.5H342ZM342 217V217.5H352V217V216.5H342V217ZM352 217H352.5V216.5H352H351.5V217H352ZM352 216.5V216H350.5V216.5V217H352V216.5ZM350.5 216.5L350.427 216.005C350.097 216.054 349.692 215.883 349.499 215.546C349.33 215.25 349.255 214.678 349.903 213.796L349.5 213.5L349.097 213.204C348.302 214.286 348.202 215.291 348.631 216.042C349.037 216.753 349.854 217.101 350.573 216.995L350.5 216.5ZM366.5 212H366C366 212.19 365.925 212.517 365.736 212.932C365.551 213.335 365.276 213.786 364.916 214.217C364.193 215.084 363.171 215.828 361.929 216.005L362 216.5L362.071 216.995C363.629 216.772 364.857 215.85 365.684 214.858C366.099 214.36 366.424 213.833 366.646 213.347C366.863 212.87 367 212.393 367 212H366.5ZM362 216.5V216H361V216.5V217H362V216.5ZM361 216.5H360.5V217H361H361.5V216.5H361ZM357.5 203.5L357.873 203.833L366.373 194.333L366 194L365.627 193.667L357.127 203.167L357.5 203.5ZM366 194V194.5H366.5V194V193.5H366V194ZM366.5 194H366V203.5H366.5H367V194H366.5ZM355 206.5L354.61 206.188L354.464 206.37L354.854 206.682L355.245 206.995L355.39 206.812L355 206.5ZM354.854 206.682L354.464 206.37C353.074 208.107 350.248 211.638 349.097 213.204L349.5 213.5L349.903 213.796C351.039 212.252 353.847 208.742 355.245 206.995L354.854 206.682ZM354.854 206.682L355.245 206.995C355.295 206.932 355.344 206.871 355.39 206.812L355 206.5L354.61 206.188C354.563 206.246 354.514 206.307 354.464 206.37L354.854 206.682ZM273 217H273.5V216.5H273H272.5V217H273ZM273 216.5V216H272V216.5V217H273V216.5ZM272 216.5L271.989 216C271.752 216.005 271.257 215.913 270.822 215.605C270.411 215.314 270.039 214.824 269.999 213.977L269.5 214L269.001 214.023C269.056 215.197 269.598 215.964 270.245 216.422C270.868 216.862 271.576 217.009 272.011 217L272 216.5ZM269.5 214L269.999 213.977C269.905 211.963 270.166 192.688 270.5 183.017L270 183L269.5 182.983C269.167 192.645 268.904 211.962 269.001 214.023L269.5 214ZM270 183H270.5V182H270H269.5V183H270ZM270 182L269.646 181.646L269.146 182.146L269.5 182.5L269.854 182.854L270.354 182.354L270 182ZM269.5 182.5L269.122 182.173L240.622 215.173L241 215.5L241.378 215.827L269.878 182.827L269.5 182.5ZM241 215.5L240.646 215.146L240.146 215.646L240.5 216L240.854 216.354L241.354 215.854L241 215.5ZM240.5 216L240.276 215.553L239.276 216.053L239.5 216.5L239.724 216.947L240.724 216.447L240.5 216ZM239.5 216.5V216H239V216.5V217H239.5V216.5ZM239 216.5H238.5V217H239H239.5V216.5H239ZM239 217V217.5H249V217V216.5H239V217ZM249 217H249.5V216.5H249H248.5V217H249ZM249 216.5V216H247.5V216.5V217H249V216.5ZM247.5 216.5L247.427 216.005C247.097 216.054 246.692 215.883 246.499 215.546C246.33 215.25 246.255 214.678 246.903 213.796L246.5 213.5L246.097 213.204C245.302 214.286 245.202 215.291 245.631 216.042C246.037 216.753 246.854 217.101 247.573 216.995L247.5 216.5ZM263.5 212H263C263 212.19 262.925 212.517 262.736 212.932C262.551 213.335 262.276 213.786 261.916 214.217C261.193 215.084 260.171 215.828 258.929 216.005L259 216.5L259.071 216.995C260.629 216.772 261.857 215.85 262.684 214.858C263.099 214.36 263.424 213.833 263.646 213.347C263.863 212.87 264 212.393 264 212H263.5ZM259 216.5V216H258V216.5V217H259V216.5ZM258 216.5H257.5V217H258H258.5V216.5H258ZM254.5 203.5L254.873 203.833L263.373 194.333L263 194L262.627 193.667L254.127 203.167L254.5 203.5ZM263 194V194.5H263.5V194V193.5H263V194ZM263.5 194H263V203.5H263.5H264V194H263.5ZM252 206.5L251.61 206.188L251.464 206.37L251.854 206.682L252.245 206.995L252.39 206.812L252 206.5ZM251.854 206.682L251.464 206.37C250.074 208.107 247.248 211.638 246.097 213.204L246.5 213.5L246.903 213.796C248.039 212.252 250.847 208.742 252.245 206.995L251.854 206.682ZM251.854 206.682L252.245 206.995C252.295 206.932 252.344 206.871 252.39 206.812L252 206.5L251.61 206.188C251.563 206.246 251.514 206.307 251.464 206.37L251.854 206.682ZM241.5 193.5L241.984 193.626L244.984 182.126L244.5 182L244.016 181.874L241.016 193.374L241.5 193.5ZM243 182L242.553 181.776L242.053 182.776L242.5 183L242.947 183.224L243.447 182.224L243 182ZM242.5 183L242.146 182.646C242.024 182.769 241.574 183.026 240.656 183.038C239.757 183.049 238.454 182.821 236.703 182.043L236.5 182.5L236.297 182.957C238.146 183.779 239.593 184.051 240.669 184.037C241.726 184.024 242.476 183.731 242.854 183.354L242.5 183ZM236.5 182.5L236.703 182.043C234.767 181.183 232.175 181.201 229.725 181.658C227.264 182.118 224.85 183.038 223.23 184.079L223.5 184.5L223.77 184.921C225.261 183.962 227.547 183.082 229.908 182.641C232.281 182.199 234.633 182.217 236.297 182.957L236.5 182.5ZM223.5 184.5L223.23 184.079C219.679 186.362 214.976 190.6 212.424 195.921C211.145 198.589 210.4 201.541 210.626 204.66C210.853 207.782 212.051 211.037 214.606 214.308L215 214L215.394 213.692C212.949 210.563 211.835 207.493 211.624 204.587C211.413 201.678 212.105 198.899 213.326 196.354C215.774 191.25 220.321 187.138 223.77 184.921L223.5 184.5ZM215 214L214.616 214.32C219.895 220.655 231.823 219.771 238.417 209.775L238 209.5L237.583 209.225C231.238 218.841 220.105 219.345 215.384 213.68L215 214ZM238 209.5L237.678 209.118C235.033 211.349 231.042 213.929 227.367 214.544C225.543 214.85 223.841 214.664 222.414 213.76C220.989 212.857 219.76 211.187 218.982 208.367L218.5 208.5L218.018 208.633C218.84 211.613 220.182 213.53 221.879 214.605C223.576 215.68 225.548 215.863 227.533 215.531C231.474 214.871 235.634 212.151 238.322 209.882L238 209.5ZM218.5 208.5L218.985 208.379C218.025 204.537 219.103 198.54 221.694 193.543C224.293 188.53 228.28 184.765 232.975 184.999L233 184.5L233.025 184.001C227.72 183.735 223.457 187.97 220.806 193.082C218.147 198.21 216.975 204.463 218.015 208.621L218.5 208.5ZM241.5 193.5V193H241V193.5V194H241.5V193.5ZM241 193.5H241.5C241.5 191.908 241.379 189.541 240.246 187.564C239.084 185.535 236.906 184 233 184V184.5V185C236.594 185 238.416 186.381 239.379 188.061C240.371 189.792 240.5 191.926 240.5 193.5H241ZM351.5 278.5C351.839 278.867 351.84 278.867 351.84 278.866C351.841 278.865 351.843 278.864 351.844 278.863C351.848 278.859 351.853 278.854 351.86 278.848C351.874 278.835 351.895 278.816 351.923 278.79C351.979 278.738 352.062 278.662 352.172 278.56C352.391 278.358 352.717 278.057 353.142 277.665C353.992 276.88 355.238 275.729 356.824 274.264C359.996 271.333 364.527 267.143 369.965 262.11C380.84 252.043 395.34 238.599 409.841 225.093C424.341 211.587 438.842 198.018 449.719 187.7C455.157 182.541 459.691 178.193 462.866 175.071C464.453 173.511 465.704 172.254 466.56 171.353C466.987 170.904 467.321 170.538 467.55 170.265C467.664 170.13 467.759 170.008 467.829 169.906C467.863 169.856 467.898 169.8 467.927 169.743C467.947 169.703 468 169.593 468 169.455H467.5H467C467 169.392 467.013 169.347 467.019 169.33C467.025 169.311 467.031 169.299 467.031 169.299C467.031 169.298 467.024 169.312 467.003 169.343C466.961 169.404 466.89 169.496 466.784 169.622C466.575 169.871 466.258 170.22 465.835 170.665C464.991 171.552 463.75 172.8 462.165 174.358C458.996 177.473 454.468 181.816 449.031 186.974C438.158 197.289 423.659 210.856 409.159 224.362C394.66 237.867 380.16 251.31 369.285 261.376C363.848 266.409 359.317 270.598 356.145 273.529C354.559 274.995 353.313 276.146 352.464 276.93C352.039 277.322 351.713 277.623 351.494 277.825C351.384 277.927 351.301 278.004 351.245 278.055C351.217 278.081 351.196 278.1 351.182 278.113C351.175 278.12 351.17 278.124 351.166 278.128C351.164 278.129 351.163 278.131 351.162 278.131C351.161 278.132 351.161 278.133 351.5 278.5ZM467.5 169.455H468C468 169.204 467.892 168.94 467.776 168.711C467.651 168.464 467.474 168.181 467.26 167.868C466.829 167.243 466.217 166.46 465.481 165.56C464.016 163.768 461.995 161.43 459.885 158.885C455.627 153.751 450.93 147.684 448.964 142.769L448.5 142.955L448.036 143.14C450.07 148.225 454.873 154.408 459.115 159.524C461.255 162.104 463.234 164.391 464.707 166.193C465.439 167.089 466.03 167.846 466.436 168.435C466.639 168.731 466.788 168.973 466.885 169.164C466.99 169.372 467 169.456 467 169.455H467.5ZM448.5 142.955L448.964 142.769C447.069 138.03 449.299 131.992 453.499 127.246C457.694 122.508 463.666 119.277 468.932 119.996L469 119.5L469.068 119.005C463.334 118.223 457.056 121.719 452.751 126.584C448.451 131.44 445.931 137.879 448.036 143.14L448.5 142.955ZM469 119.5L468.932 119.996C474.342 120.733 482.756 123.913 492.351 129.197C501.933 134.474 512.651 141.826 522.665 150.871L523 150.5L523.335 150.129C513.261 141.03 502.479 133.633 492.833 128.321C483.2 123.016 474.658 119.767 469.068 119.005L469 119.5ZM523 150.5L522.663 150.87C536.665 163.625 544.114 171.35 556.616 186.321L557 186L557.384 185.68C544.852 170.674 537.371 162.916 523.337 150.131L523 150.5ZM557 186L556.616 186.321C559.699 190.012 561.435 193.715 561.997 197.366C562.559 201.014 561.955 204.642 560.303 208.195C556.991 215.318 549.469 222.131 538.758 228.063L539 228.5L539.242 228.937C550.031 222.962 557.768 216.019 561.21 208.616C562.935 204.906 563.581 201.079 562.986 197.213C562.39 193.35 560.56 189.483 557.384 185.68L557 186ZM539 228.5L538.758 228.063C517.333 239.928 483.645 250.607 441.989 251.5L442 252L442.011 252.5C483.818 251.604 517.667 240.886 539.242 228.937L539 228.5ZM442 252L442.213 252.452C473.968 237.488 516.765 210.925 520.291 208.407L520 208L519.709 207.593C516.235 210.075 473.489 236.608 441.787 251.548L442 252ZM520 208L520.291 208.407C522.062 207.142 522.908 206.187 523.275 205.292C523.637 204.41 523.5 203.602 523.5 202.955H523H522.5C522.5 203.807 522.613 204.272 522.35 204.913C522.092 205.54 521.438 206.359 519.709 207.593L520 208ZM523 202.955H523.5C523.5 202.644 523.367 202.298 523.207 201.974C523.037 201.633 522.798 201.245 522.515 200.829C521.946 199.996 521.168 199.012 520.32 198.007C518.622 195.995 516.612 193.859 515.354 192.601L515 192.955L514.646 193.308C515.888 194.55 517.878 196.664 519.555 198.652C520.395 199.647 521.148 200.601 521.689 201.393C521.959 201.789 522.17 202.136 522.311 202.419C522.461 202.721 522.5 202.89 522.5 202.955H523ZM515 192.955L515.354 192.601C513.988 191.236 511.603 190.466 509.28 190.026C506.929 189.581 504.522 189.455 503 189.455V189.955V190.455C504.478 190.455 506.821 190.578 509.095 191.009C511.397 191.444 513.512 192.174 514.646 193.308L515 192.955ZM503 189.955V189.455C502.908 189.455 502.823 189.475 502.768 189.491C502.706 189.508 502.639 189.532 502.572 189.558C502.437 189.611 502.272 189.685 502.082 189.778C501.701 189.964 501.19 190.236 500.561 190.585C499.302 191.285 497.547 192.309 495.372 193.61C491.021 196.211 484.971 199.925 477.799 204.381C463.453 213.293 444.608 225.174 425.857 237.055C407.107 248.936 388.45 260.817 374.481 269.728C367.497 274.183 361.684 277.896 357.617 280.495C355.584 281.794 353.987 282.815 352.899 283.511C352.355 283.859 351.938 284.126 351.657 284.306C351.516 284.396 351.41 284.464 351.338 284.51C351.302 284.533 351.276 284.55 351.258 284.562C351.249 284.567 351.242 284.572 351.237 284.575C351.235 284.576 351.233 284.577 351.232 284.578C351.231 284.579 351.23 284.579 351.5 285C351.77 285.421 351.77 285.421 351.771 285.42C351.772 285.419 351.774 285.418 351.776 285.417C351.781 285.414 351.788 285.41 351.797 285.404C351.815 285.392 351.841 285.375 351.877 285.352C351.949 285.307 352.055 285.238 352.196 285.149C352.477 284.969 352.894 284.702 353.438 284.354C354.526 283.658 356.123 282.637 358.156 281.337C362.222 278.738 368.035 275.026 375.019 270.571C388.987 261.66 407.643 249.78 426.393 237.9C445.142 226.019 463.985 214.14 478.326 205.23C485.498 200.775 491.542 197.065 495.885 194.468C498.058 193.169 499.802 192.151 501.047 191.459C501.671 191.113 502.164 190.851 502.521 190.677C502.7 190.589 502.837 190.528 502.936 190.489C502.986 190.47 503.019 190.459 503.038 190.453C503.065 190.446 503.045 190.455 503 190.455V189.955ZM351.5 285H352V278.5H351.5H351V285H351.5ZM709.5 77.0455L709.726 76.5996C709.53 76.4998 709.341 76.5463 709.268 76.5679C709.175 76.5954 709.087 76.6393 709.014 76.6812C708.865 76.7669 708.689 76.8946 708.497 77.0482C708.108 77.3588 707.588 77.8266 706.959 78.4222C705.697 79.6161 703.962 81.3584 701.894 83.4725C699.825 85.5876 697.417 88.0805 694.809 90.7774C692.201 93.4748 689.391 96.3771 686.517 99.3131C680.767 105.186 674.763 111.189 669.596 115.952C667.012 118.334 664.643 120.4 662.623 121.984C660.59 123.577 658.952 124.648 657.822 125.078L658 125.546L658.178 126.013C659.462 125.523 661.203 124.367 663.24 122.771C665.289 121.164 667.68 119.078 670.274 116.688C675.461 111.907 681.48 105.888 687.232 100.013C690.108 97.0742 692.92 94.17 695.528 91.4725C698.137 88.7746 700.543 86.2843 702.609 84.1717C704.677 82.058 706.4 80.3279 707.646 79.1484C708.271 78.5573 708.766 78.1131 709.121 77.8295C709.301 77.6859 709.429 77.596 709.512 77.5487C709.555 77.5242 709.565 77.5228 709.551 77.527C709.543 77.5293 709.515 77.5371 709.473 77.538C709.43 77.539 709.356 77.5332 709.274 77.4914L709.5 77.0455ZM658 125.546L657.822 125.078C653.134 126.865 649.021 126.404 645.227 124.043C641.401 121.662 637.866 117.327 634.435 111.298L634 111.546L633.565 111.793C637.027 117.875 640.663 122.38 644.699 124.892C648.767 127.423 653.208 127.907 658.178 126.013L658 125.546ZM634 111.546L634.473 111.384C630.996 101.187 626.093 92.6321 621.291 86.805C618.891 83.8929 616.503 81.6461 614.316 80.2184C612.148 78.8034 610.085 78.1339 608.379 78.5604L608.5 79.0455L608.621 79.5306C609.915 79.2071 611.674 79.6884 613.769 81.0558C615.845 82.4103 618.159 84.5772 620.519 87.441C625.237 93.1655 630.084 101.611 633.527 111.707L634 111.546ZM608.5 79.0455L608.379 78.5604C605.203 79.3543 602.453 81.8724 600.277 85.308C598.095 88.7522 596.451 93.1767 595.51 97.9023L596 98L596.49 98.0977C597.413 93.4641 599.019 89.1614 601.121 85.8432C603.229 82.5163 605.797 80.2368 608.621 79.5306L608.5 79.0455ZM596 98L595.502 97.9597C594.354 112.169 600.046 125.683 606.602 134.303L607 134L607.398 133.697C600.954 125.226 595.375 111.95 596.498 98.0403L596 98ZM607 134L606.602 134.303C609.893 138.629 615.565 143.919 622.362 148.13C629.156 152.339 637.123 155.5 645 155.5V155V154.5C637.377 154.5 629.594 151.434 622.888 147.28C616.185 143.127 610.607 137.917 607.398 133.697L607 134ZM645 155V155.5C660.747 155.5 675.483 144.95 693.888 122.361L693.5 122.046L693.112 121.73C674.726 144.296 660.253 154.5 645 154.5V155ZM693.5 122.046L693.902 122.342C699.962 114.13 703.931 107.531 706.411 100.612C708.893 93.6893 709.873 86.4773 710 77.0522L709.5 77.0455L709 77.0388C708.874 86.3998 707.901 93.4921 705.47 100.275C703.037 107.061 699.133 113.57 693.098 121.749L693.5 122.046ZM520 52.5455L519.743 52.9743C523.964 55.507 530.715 58.1051 536.965 58.901C540.09 59.299 543.128 59.2514 545.674 58.4916C548.234 57.7279 550.317 56.2364 551.455 53.7538L551 53.5455L550.545 53.3372C549.554 55.5006 547.739 56.8321 545.388 57.5333C543.025 58.2384 540.142 58.2975 537.091 57.909C530.989 57.132 524.369 54.5841 520.257 52.1168L520 52.5455ZM551 53.5455L551.455 53.7538C554.3 47.5452 552.471 41.1168 549.88 36.1879C547.284 31.2495 543.87 27.7085 543.354 27.192L543 27.5455L542.646 27.8991C543.13 28.3825 546.466 31.8415 548.995 36.6532C551.529 41.4742 553.2 47.5458 550.545 53.3372L551 53.5455ZM543 27.5455L543.368 27.2074C532.12 14.9552 521.556 8.40743 512.088 4.86472C502.623 1.32321 494.282 0.796347 487.519 0.545849L487.5 1.04551L487.481 1.54516C494.218 1.79467 502.427 2.31781 511.737 5.8013C521.044 9.2836 531.48 15.7359 542.632 27.8837L543 27.5455ZM487.5 1.04551L487.53 0.546397C483.85 0.326502 478.815 0.926186 475.894 1.55677L476 2.04551L476.106 2.53425C478.965 1.91682 483.906 1.33162 487.47 1.54462L487.5 1.04551ZM476 2.04551L475.894 1.55677C473.223 2.13356 470.647 3.16289 467.776 4.5983L468 5.04551L468.224 5.49272C471.053 4.07785 473.546 3.08684 476.106 2.53425L476 2.04551ZM468 5.04551L467.736 4.62069C450.176 15.52 441.956 33.1714 438.833 50.8083C435.71 68.4406 437.668 86.1137 440.516 97.1702L441 97.0455L441.484 96.9208C438.665 85.9774 436.724 68.4505 439.817 50.9827C442.91 33.5196 451.024 16.171 468.264 5.47033L468 5.04551ZM441 97.0455L441.488 97.154C443.982 85.9312 449.095 69.1255 456.319 55.1881C459.931 48.2183 464.059 41.9921 468.63 37.5396C473.202 33.0868 478.174 30.4488 483.491 30.5454L483.5 30.0455L483.509 29.5456C477.826 29.4423 472.611 32.2667 467.932 36.8233C463.254 41.3801 459.069 47.7102 455.431 54.7279C448.155 68.7656 443.018 85.6599 440.512 96.9371L441 97.0455ZM483.5 30.0455V30.5455C487.176 30.5455 491.213 32.0827 494.797 34.0465C498.373 36.0053 501.441 38.3569 503.165 39.9163L503.5 39.5455L503.835 39.1747C502.059 37.5675 498.927 35.169 495.278 33.1695C491.637 31.175 487.424 29.5455 483.5 29.5455V30.0455ZM503.5 39.5455L503.165 39.9163C508.139 44.4171 514.697 49.9468 519.743 52.9743L520 52.5455L520.257 52.1168C515.303 49.1442 508.808 43.6739 503.835 39.1747L503.5 39.5455ZM572.543 44.5L572.043 44.5277C572.298 49.1176 574.179 56.0471 578.992 61.9897C583.818 67.9495 591.575 72.8921 603.517 73.4994L603.543 73L603.568 72.5006C591.91 71.9079 584.417 67.1005 579.769 61.3603C575.106 55.6029 573.287 48.8824 573.042 44.4723L572.543 44.5ZM603.543 73L603.517 73.4994C615.48 74.1076 623.821 69.4119 629.246 63.2813C634.653 57.1699 637.159 49.6388 637.499 44.5333L637 44.5L636.501 44.4667C636.175 49.3612 633.751 56.6801 628.497 62.6187C623.259 68.5381 615.205 73.0924 603.568 72.5006L603.543 73ZM637 44.5L637.5 44.4912C637.415 39.6387 635.506 32.3596 630.326 26.1803C625.132 19.9834 616.673 14.9233 603.559 14.5003L603.543 15L603.526 15.4997C616.37 15.914 624.556 20.8539 629.56 26.8227C634.578 32.8091 636.419 39.8613 636.5 44.5088L637 44.5ZM603.543 15L603.559 14.5003C590.999 14.0951 583.092 19.0005 578.343 25.3376C573.613 31.6477 572.043 39.3355 572.043 44.5H572.543H573.043C573.043 39.4978 574.572 32.0357 579.143 25.9374C583.693 19.8661 591.287 15.1049 603.526 15.4997L603.543 15ZM1 215.5V216H28.5V215.5V215H1V215.5ZM28.5 215.5L28.9765 215.652L32.4765 204.652L32 204.5L31.5235 204.348L28.0235 215.348L28.5 215.5ZM32 204.5L31.5962 204.205C30.0451 206.329 28.7015 207.778 27.1452 208.946C25.5863 210.117 23.7909 211.024 21.3109 212.037L21.5 212.5L21.6891 212.963C24.2014 211.937 26.0872 210.991 27.7457 209.746C29.4069 208.499 30.8172 206.967 32.4038 204.795L32 204.5ZM21.5 212.5V212H12.5V212.5V213H21.5V212.5ZM12.5 212.5C12.9777 212.648 12.9777 212.648 12.9778 212.647C12.9779 212.647 12.978 212.647 12.9781 212.646C12.9783 212.646 12.9787 212.644 12.9792 212.643C12.9803 212.639 12.9818 212.634 12.9838 212.628C12.9879 212.615 12.994 212.595 13.0021 212.569C13.0182 212.517 13.0421 212.44 13.0733 212.339C13.1358 212.137 13.2275 211.841 13.3447 211.464C13.579 210.709 13.9149 209.629 14.321 208.329C15.1334 205.728 16.2268 202.244 17.3514 198.714C18.4762 195.184 19.6315 191.609 20.5677 188.823C21.0359 187.43 21.4483 186.238 21.7742 185.349C21.9372 184.904 22.0772 184.539 22.1907 184.264C22.3106 183.973 22.3852 183.824 22.416 183.777L22 183.5L21.584 183.223C21.4898 183.364 21.3808 183.605 21.2664 183.882C21.1455 184.175 21.0003 184.554 20.8352 185.005C20.5048 185.907 20.0891 187.109 19.6198 188.505C18.681 191.298 17.5238 194.879 16.3986 198.411C15.2732 201.943 14.1791 205.429 13.3665 208.031C12.9601 209.332 12.6241 210.412 12.3897 211.167C12.2725 211.545 12.1806 211.841 12.1181 212.043C12.0868 212.144 12.0629 212.221 12.0468 212.273C12.0387 212.299 12.0326 212.319 12.0285 212.332C12.0264 212.339 12.0249 212.344 12.0239 212.347C12.0233 212.349 12.023 212.35 12.0227 212.351C12.0226 212.351 12.0225 212.352 12.0224 212.352C12.0223 212.352 12.0223 212.352 12.5 212.5ZM22 183.5L22.416 183.777C23.2735 182.491 24.3116 182.38 26.5839 181.993L26.5 181.5L26.4161 181.007C24.2738 181.372 22.7265 181.509 21.584 183.223L22 183.5ZM26.5 181.5H27V180.5H26.5H26V181.5H26.5ZM26.5 180.5V180H10.5V180.5V181H26.5V180.5ZM10.5 180.5H10V181.5H10.5H11V180.5H10.5ZM10.5 181.5L10.2764 181.947C10.7193 182.169 11.2095 182.308 11.668 182.417C12.1569 182.534 12.5549 182.606 12.9568 182.713C13.3471 182.818 13.6181 182.927 13.7877 183.059C13.9276 183.168 14 183.29 14 183.5H14.5H15C15 182.96 14.7677 182.555 14.4017 182.27C14.0653 182.008 13.6292 181.858 13.2148 181.747C12.8119 181.64 12.3076 181.542 11.9 181.445C11.4621 181.34 11.0618 181.222 10.7236 181.053L10.5 181.5ZM14.5 183.5H14C14 183.5 13.9998 183.511 13.9972 183.537C13.9946 183.562 13.9904 183.594 13.9842 183.636C13.9716 183.718 13.9522 183.825 13.9254 183.957C13.872 184.222 13.7926 184.572 13.6897 184.998C13.4842 185.849 13.1886 186.989 12.8297 188.323C12.112 190.991 11.1443 194.425 10.1449 197.86C9.1455 201.296 8.11541 204.729 7.27321 207.396C6.85196 208.73 6.47877 209.869 6.18053 210.719C6.03128 211.145 5.90224 211.494 5.79636 211.757C5.68434 212.036 5.61367 212.178 5.58397 212.223L6 212.5L6.41603 212.777C6.51133 212.634 6.61644 212.398 6.72415 212.13C6.838 211.847 6.97263 211.482 7.12416 211.05C7.42748 210.186 7.80429 209.035 8.22679 207.697C9.07209 205.021 10.1045 201.579 11.1051 198.14C12.1057 194.7 13.0755 191.259 13.7953 188.583C14.1552 187.245 14.4533 186.096 14.6618 185.233C14.766 184.801 14.8487 184.437 14.9056 184.155C14.9588 183.892 15 183.653 15 183.5H14.5ZM6 212.5L5.58397 212.223C4.68918 213.565 3.76438 213.789 0.805405 215.039L1 215.5L1.19459 215.961C3.99631 214.777 5.31082 214.435 6.41603 212.777L6 212.5ZM316 33L315.51 32.9019C315.265 34.1262 312.899 42.5949 309.472 54.6603C306.05 66.7064 301.582 82.2995 297.144 97.7369C292.707 113.174 288.301 128.455 285.004 139.877C283.356 145.588 281.984 150.334 281.026 153.652C280.546 155.311 280.17 156.614 279.913 157.501C279.785 157.945 279.686 158.285 279.62 158.514C279.587 158.628 279.562 158.715 279.545 158.773C279.537 158.802 279.53 158.824 279.526 158.839C279.524 158.846 279.522 158.852 279.521 158.856C279.521 158.857 279.52 158.859 279.52 158.86C279.52 158.861 279.52 158.861 280 159C280.48 159.139 280.48 159.138 280.481 159.138C280.481 159.137 280.481 159.135 280.482 159.133C280.483 159.13 280.485 159.124 280.487 159.117C280.491 159.102 280.497 159.08 280.506 159.051C280.523 158.993 280.548 158.906 280.581 158.792C280.647 158.563 280.745 158.223 280.874 157.779C281.13 156.891 281.507 155.589 281.986 153.93C282.945 150.611 284.316 145.865 285.965 140.154C289.262 128.732 293.668 113.451 298.106 98.0131C302.543 82.5755 307.012 66.9811 310.434 54.9335C313.851 42.9051 316.235 34.3737 316.49 33.0981L316 33ZM280 159L279.558 158.766C278.179 161.372 272.21 166.585 259.562 165.004L259.5 165.5L259.438 165.996C272.39 167.615 278.821 162.295 280.442 159.234L280 159ZM259.5 165.5L259.084 165.223C258.577 165.984 257.883 167.138 257.465 168.116C257.262 168.592 257.096 169.09 257.088 169.498C257.083 169.703 257.117 169.961 257.285 170.176C257.47 170.413 257.74 170.5 258 170.5V170V169.5C257.96 169.5 258.02 169.493 258.073 169.56C258.108 169.605 258.085 169.617 258.087 169.518C258.092 169.316 258.188 168.97 258.385 168.509C258.767 167.612 259.423 166.516 259.916 165.777L259.5 165.5ZM337.5 170L337.524 170.499C347.824 169.997 363.228 167.161 375.975 160.265C388.733 153.363 398.906 142.344 398.5 125.488L398 125.5L397.5 125.512C397.894 141.856 388.067 152.587 375.5 159.385C362.922 166.189 347.676 169.003 337.476 169.501L337.5 170ZM398 125.5L398.499 125.525C398.755 120.503 397.252 112.537 391.939 105.365C386.614 98.176 377.487 91.819 362.56 90.0037L362.5 90.5L362.44 90.9963C377.113 92.781 385.986 99.0074 391.136 105.96C396.298 112.93 397.745 120.663 397.501 125.475L398 125.5ZM362.5 90.5L362.582 90.0068L359.582 89.5068L359.5 90L359.418 90.4932L362.418 90.9932L362.5 90.5ZM359.5 90L359.631 90.4825L365.293 88.9441L365.162 88.4616L365.031 87.9791L359.369 89.5175L359.5 90ZM365.162 88.4616L365.278 88.9479C372.765 87.1619 384.058 83.1319 393.544 76.7843C403.016 70.4453 410.796 61.7153 411 50.5091L410.5 50.5L410 50.4909C409.805 61.2049 402.362 69.6795 392.987 75.9532C383.626 82.2182 372.45 86.2089 365.046 87.9752L365.162 88.4616ZM410.5 50.5L411 50.5091C411.127 43.5351 409.286 38.0239 406.253 33.6899C403.224 29.3615 399.025 26.2344 394.471 23.989C385.375 19.5039 374.788 18.5 369 18.5V19V19.5C374.712 19.5 385.125 20.4961 394.029 24.886C398.475 27.0781 402.526 30.1073 405.434 34.2632C408.339 38.4136 410.123 43.7149 410 50.4909L410.5 50.5ZM369 19V18.5H299V19V19.5H369V19ZM299 19L298.519 18.8626L297.519 22.3626L298 22.5L298.481 22.6374L299.481 19.1374L299 19ZM298 22.5L298.018 22.9997C303.96 22.7845 308.602 24.1433 311.617 26.129C314.649 28.126 315.953 30.6836 315.51 32.9019L316 33L316.49 33.0981C317.047 30.3164 315.373 27.4059 312.167 25.2939C308.943 23.1705 304.085 21.7793 297.982 22.0003L298 22.5ZM348.5 27L348.567 27.4955C355.258 26.5869 364.62 27.475 370.42 32.9268C376.157 38.3187 378.606 48.3848 371.039 66.3055L371.5 66.5L371.961 66.6945C379.594 48.6152 377.293 38.0146 371.105 32.1982C364.98 26.4416 355.242 25.5798 348.433 26.5045L348.5 27ZM371.5 66.5L371.043 66.2969C370.065 68.4971 367.971 72 364.885 75.2958C361.799 78.5913 357.749 81.6509 352.865 83.0185L353 83.5L353.135 83.9815C358.251 82.549 362.451 79.3587 365.615 75.9792C368.779 72.6 370.935 69.0029 371.957 66.7031L371.5 66.5ZM353 83.5L352.865 83.0185C347.902 84.4082 343.101 85.1121 339.272 85.4267C335.429 85.7424 332.601 85.6635 331.576 85.5058L331.5 86L331.424 86.4942C332.566 86.6699 335.487 86.741 339.353 86.4233C343.232 86.1046 348.098 85.3918 353.135 83.9815L353 83.5ZM329.014 95.2789L329.055 95.7772C332.02 95.5331 336.88 95.6055 341.265 95.8891C343.455 96.0307 345.516 96.2243 347.153 96.4551C347.972 96.5706 348.678 96.6945 349.237 96.8242C349.811 96.9572 350.185 97.0863 350.374 97.1948L350.623 96.7616L350.873 96.3284C350.547 96.1404 350.047 95.9853 349.463 95.85C348.864 95.7113 348.127 95.5827 347.293 95.4649C345.622 95.2294 343.535 95.0337 341.33 94.8912C336.926 94.6064 332.01 94.5306 328.973 94.7806L329.014 95.2789ZM359.885 136.795L359.421 136.607C354.343 149.095 344.829 155.681 335.158 158.908C325.473 162.14 315.654 161.991 310.063 161.015L309.977 161.507L309.891 162C315.619 163 325.609 163.148 335.475 159.856C345.356 156.559 355.136 149.801 360.348 136.984L359.885 136.795ZM309.977 161.507L310.457 161.645L329.494 95.4171L329.014 95.2789L328.533 95.1408L309.496 161.369L309.977 161.507ZM258 170V170.5H337.5V170V169.5H258V170ZM331.5 86L331.98 86.1384L348.98 27.1384L348.5 27L348.02 26.8616L331.02 85.8616L331.5 86ZM350.623 96.7616L350.374 97.1948C350.504 97.2697 350.67 97.3598 350.86 97.4623L351.098 97.0224L351.335 96.5826C351.141 96.4776 350.988 96.3949 350.873 96.3284L350.623 96.7616ZM351.098 97.0224L350.86 97.4623C352.762 98.4905 357.76 101.196 360.864 107.15C363.956 113.083 365.219 122.35 359.421 136.607L359.885 136.795L360.348 136.984C366.226 122.529 365.012 112.945 361.75 106.688C358.5 100.452 353.267 97.6266 351.335 96.5826L351.098 97.0224ZM38.3776 195.144L38.8561 195.289C39.504 193.151 41.0938 190.084 43.3903 187.305C45.6879 184.525 48.6487 182.087 52.015 181.125L51.8776 180.644L51.7403 180.163C48.1065 181.202 44.987 183.803 42.6194 186.668C40.2507 189.534 38.5906 192.717 37.8991 194.999L38.3776 195.144ZM48.3776 215.644V215.144C45.8963 215.144 42.311 214.179 39.9537 211.267C37.6149 208.378 36.3848 203.445 38.8561 195.289L38.3776 195.144L37.8991 194.999C35.3705 203.344 36.557 208.66 39.1765 211.896C41.7775 215.109 45.6922 216.144 48.3776 216.144V215.644ZM48.3776 215.644V216.144C52.6997 216.144 63.5313 213.319 68.3465 200.318L67.8776 200.144L67.4087 199.97C62.7729 212.487 52.3888 215.144 48.3776 215.144V215.644ZM67.8776 200.144L68.3465 200.318C71.0737 192.954 70.0871 188.03 67.9961 184.868C65.9266 181.739 62.8329 180.425 61.4757 180.154L61.3776 180.644L61.2796 181.134C62.4223 181.363 65.2639 182.55 67.1619 185.42C69.0385 188.258 70.0519 192.834 67.4087 199.97L67.8776 200.144ZM61.3776 180.644L61.4757 180.154C59.9942 179.857 56.375 178.839 51.7403 180.163L51.8776 180.644L52.015 181.125C56.3803 179.878 59.7611 180.831 61.2796 181.134L61.3776 180.644ZM50.3776 213.144L50.2832 212.653C48.7593 212.946 47.6131 212.703 46.7578 212.117C45.893 211.525 45.2572 210.536 44.8562 209.21C44.0501 206.546 44.2474 202.695 45.2379 198.702C46.2255 194.721 47.9828 190.675 50.2179 187.636C52.4661 184.579 55.1174 182.644 57.8776 182.644V182.144V181.644C54.6378 181.644 51.7266 183.897 49.4124 187.043C47.085 190.207 45.2798 194.38 44.2673 198.461C43.2579 202.531 43.0177 206.586 43.899 209.5C44.3417 210.963 45.081 212.181 46.1928 212.942C47.314 213.71 48.7459 213.967 50.472 213.635L50.3776 213.144ZM50.3776 213.144L50.472 213.635C52.412 213.262 54.5089 211.507 56.4014 209.006C58.3132 206.479 60.087 203.097 61.352 199.302L60.8776 199.144L60.4033 198.986C59.1683 202.691 57.4421 205.973 55.6039 208.403C53.7464 210.858 51.8433 212.353 50.2832 212.653L50.3776 213.144ZM60.8776 199.144L61.352 199.302C61.9509 197.506 62.5189 194.591 62.7817 191.816C62.9133 190.426 62.9697 189.057 62.9122 187.87C62.8555 186.699 62.6861 185.643 62.3248 184.921L61.8776 185.144L61.4304 185.368C61.6942 185.895 61.8581 186.776 61.9134 187.918C61.9679 189.043 61.9149 190.362 61.7861 191.722C61.528 194.447 60.971 197.283 60.4033 198.986L60.8776 199.144ZM61.8776 185.144L62.3248 184.921C61.7289 183.729 61.2581 183.202 60.6873 182.752L60.3776 183.144L60.0679 183.537C60.5034 183.88 60.8878 184.282 61.4304 185.368L61.8776 185.144ZM60.3776 183.144L60.6873 182.752C60.0666 182.262 59.2304 181.644 57.8776 181.644V182.144V182.644C58.8771 182.644 59.4855 183.077 60.0679 183.537L60.3776 183.144ZM177 218H177.5V215.972H177H176.5V218H177ZM355 206.5V207H366.5V206.5V206H355V206.5ZM366.5 206.5H366V212H366.5H367V206.5H366.5ZM361 217V217.5H376V217V216.5H361V217ZM366.5 203.5V203H357.5V203.5V204H366.5V203.5ZM252 206.5V207H263.5V206.5V206H252V206.5ZM263.5 206.5H263V212H263.5H264V206.5H263.5ZM258 217V217.5H273V217V216.5H258V217ZM263.5 203.5V203H254.5V203.5V204H263.5V203.5ZM244.5 182V181.5H243V182V182.5H244.5V182Z" fill="white"/>
</svg>
