<svg width="3421" height="1494" viewBox="0 0 3421 1494" fill="none" xmlns="http://www.w3.org/2000/svg">
<path d="M862.038 975.528C841.287 1042.23 821.301 1069.55 745.7 1070.09V1088.48H1097.14V1070.09C1022.8 1069.64 1004.94 1059.3 1012.31 1020.18L1181.97 376.627C1191.48 343.112 1217.58 322.16 1288.61 316.211V295.197H937.173L932.326 316.211C1002.2 323.356 1028.42 333.279 1019.58 376.627L862.038 975.528Z" fill="white"/>
<path fill-rule="evenodd" clip-rule="evenodd" d="M289.271 1059.58C270.854 1051.7 244.486 1035.94 267.651 957.141C289.271 883.591 332.186 712.852 337.316 697.091H378.155L469.44 1056.96C471.843 1064.84 479.049 1083.23 491.061 1083.23L700.057 1085.85V1067.46C684.042 1068.34 646.727 1061.69 625.587 1028.06C591.956 978.155 529.497 704.972 527.095 694.465C523.683 679.755 535.282 676.077 541.508 676.077C691.409 638.252 722.478 525.476 719.275 473.817C721.677 329.345 601.565 303.077 567.933 300.45C541.028 298.349 312.493 296.948 197.985 295.197H190.778V313.584C255.639 313.584 270.053 331.972 270.053 368.746L106.699 996.542C99.4926 1022.81 72.1068 1066.41 1 1062.21V1080.6H8.20677L340.637 1083.23V1067.46C329.921 1067.46 304.645 1065.89 289.271 1059.58ZM503.072 345.105C546.313 360.866 572.737 387.134 555.922 507.965C542.086 607.381 457.429 660.317 421.395 662.943H344.523L433.406 339.852C443.816 338.101 474.245 336.7 503.072 345.105Z" fill="white"/>
<path d="M1699.98 1458.85C1699.98 1458.85 2257.31 896.489 2257.31 885.98C2257.31 875.472 2185.24 799.297 2166.02 746.762C2146.8 694.227 2211.66 615.663 2264.51 623.543C2317.36 631.424 2427.44 691.081 2523.96 786.403C2591.31 853.491 2627.18 894.161 2687.31 972.903C2747.45 1051.64 2704.13 1133.62 2600.83 1196.18C2497.53 1258.73 2335.29 1314.94 2134.79 1319.63C2287.23 1241.09 2492.73 1101.61 2509.54 1088.48C2526.36 1075.35 2523.96 1069.85 2523.96 1061.97C2523.96 1054.09 2497.53 1022.57 2485.52 1009.44C2473.51 996.306 2442.28 993.678 2427.87 993.678C2413.45 993.678 1699.98 1493 1699.98 1493V1458.85Z" fill="white"/>
<path d="M3420 400.507C3413.63 396.971 3218.97 635.967 3172.57 655.302C3126.17 674.638 3090.37 645.378 3057.26 581.753C3024.01 475.141 2963.57 403.133 2934.74 411.014C2905.92 418.894 2883.64 461.423 2874.69 510.592C2869.23 584.451 2896.31 654.824 2927.54 699.718C2958.77 744.612 3035.64 810.042 3110.11 810.042C3184.58 810.042 3254.75 755.526 3343.13 636.915C3401.24 550.803 3418.78 499.2 3420 400.507Z" fill="white"/>
<path d="M2509.54 271.795C2549.58 298.063 2638.02 325.865 2658.48 277.049C2684.91 214.007 2624.85 145.711 2620.05 140.457C2512.43 12.2715 2418.26 3.86583 2353.4 1.23907C2336 0.101968 2312.03 3.21437 2298.15 6.49261C2285.58 9.45921 2273.4 14.7662 2259.71 22.2532C2092.51 135.729 2102.76 390 2129.99 505.577C2154.01 387.373 2228.48 151.49 2334.18 153.591C2370.69 153.591 2413.45 186.863 2430.27 203.5C2454.17 227.14 2485.52 256.035 2509.54 271.795Z" fill="white"/>
<path d="M2761.99 229.528C2764.39 276.81 2797.54 372.949 2910.93 379.254C3024.31 385.558 3068.47 282.063 3071.67 229.528C3070.87 179.62 3035.64 78.9483 2910.93 74.5493C2791.77 70.3465 2761.99 176.117 2761.99 229.528Z" fill="white"/>
<path fill-rule="evenodd" clip-rule="evenodd" d="M1437.55 363.493C1432.75 389.76 1264.59 1025.44 1264.59 1025.44C1257.38 1040.32 1227.59 1067.99 1166.1 1059.58C1161.29 1067.46 1153.12 1083.23 1158.89 1083.23H1540.85C1639.34 1077.97 1835.36 1023.86 1831.52 849.443C1833.92 797.784 1803.17 684.483 1660.96 665.57L1646.55 662.943L1673.75 654.861C1745.29 636.199 1889.66 570.588 1891.58 455.429C1893.98 310.958 1747.44 289.943 1692.19 289.943H1355.87L1351.07 308.331C1408.94 306.039 1442.35 337.225 1437.55 363.493ZM1704.2 539.486C1777.23 350.359 1658.56 322.34 1593.7 331.972L1512.02 641.929C1522.43 643.68 1567.27 643.505 1615.32 628.796C1663.36 614.086 1694.59 563.127 1704.2 539.486ZM1603.9 698.466C1594.01 692.234 1528.91 688.08 1500.08 690.676L1408.61 1038.61C1463 1048.99 1598.95 1041.72 1648.39 908.783C1704.49 757.945 1624.6 710.723 1606.18 699.836C1605.26 699.291 1604.49 698.837 1603.9 698.466Z" fill="white"/>
<path d="M190.778 295.197H197.985C312.493 296.948 541.028 298.349 567.933 300.45C601.565 303.077 721.677 329.345 719.275 473.817C722.478 525.476 691.409 638.252 541.508 676.077C535.282 676.077 523.683 679.755 527.095 694.465C529.497 704.972 591.956 978.155 625.587 1028.06C646.727 1061.69 684.042 1068.34 700.057 1067.46V1085.85L491.061 1083.23C479.049 1083.23 471.843 1064.84 469.44 1056.96L378.155 697.091H337.316C332.186 712.852 289.271 883.591 267.651 957.141C244.486 1035.94 270.854 1051.7 289.271 1059.58C304.645 1065.89 329.921 1067.46 340.637 1067.46V1083.23L8.20677 1080.6H1V1062.21C72.1068 1066.41 99.4926 1022.81 106.699 996.542L270.053 368.746C270.053 331.972 255.639 313.584 190.778 313.584V295.197ZM190.778 295.197V316.211M745.7 1070.09C821.301 1069.55 841.287 1042.23 862.038 975.528L1019.58 376.627C1028.42 333.279 1002.2 323.356 932.326 316.211L937.173 295.197H1288.61V316.211C1217.58 322.16 1191.48 343.112 1181.97 376.627L1012.31 1020.18C1004.94 1059.3 1022.8 1069.64 1097.14 1070.09V1088.48H745.7V1070.09ZM555.922 507.965C572.737 387.134 546.313 360.866 503.072 345.105C474.245 336.7 443.816 338.101 433.406 339.852L344.523 662.943H421.395C457.429 660.317 542.086 607.381 555.922 507.965ZM1699.98 1458.85C1699.98 1458.85 2257.31 896.489 2257.31 885.98C2257.31 875.472 2185.24 799.297 2166.02 746.762C2146.8 694.227 2211.66 615.663 2264.51 623.543C2317.36 631.424 2427.44 691.081 2523.96 786.403C2591.31 853.491 2627.18 894.161 2687.31 972.903C2747.45 1051.64 2704.13 1133.62 2600.83 1196.18C2497.53 1258.73 2335.29 1314.94 2134.79 1319.63C2287.23 1241.09 2492.73 1101.61 2509.54 1088.48C2526.36 1075.35 2523.96 1069.85 2523.96 1061.97C2523.96 1054.09 2497.53 1022.57 2485.52 1009.44C2473.51 996.306 2442.28 993.678 2427.87 993.678C2413.45 993.678 1699.98 1493 1699.98 1493V1458.85ZM3420 400.507C3413.63 396.971 3218.97 635.967 3172.57 655.302C3126.17 674.638 3090.37 645.378 3057.26 581.753C3024.01 475.141 2963.57 403.133 2934.74 411.014C2905.92 418.894 2883.64 461.423 2874.69 510.592C2869.23 584.451 2896.31 654.824 2927.54 699.718C2958.77 744.612 3035.64 810.042 3110.11 810.042C3184.58 810.042 3254.75 755.526 3343.13 636.915C3401.24 550.803 3418.78 499.2 3420 400.507ZM2509.54 271.795C2549.58 298.063 2638.02 325.865 2658.48 277.049C2684.91 214.007 2624.85 145.711 2620.05 140.457C2512.43 12.2715 2418.26 3.86583 2353.4 1.23907C2336 0.101968 2312.03 3.21437 2298.15 6.49261C2285.58 9.45921 2273.4 14.7662 2259.71 22.2532C2092.51 135.729 2102.76 390 2129.99 505.577C2154.01 387.373 2228.48 151.49 2334.18 153.591C2370.69 153.591 2413.45 186.863 2430.27 203.5C2454.17 227.14 2485.52 256.035 2509.54 271.795ZM2761.99 229.528C2764.39 276.81 2797.54 372.949 2910.93 379.254C3024.31 385.558 3068.47 282.063 3071.67 229.528C3070.87 179.62 3035.64 78.9483 2910.93 74.5493C2791.77 70.3465 2761.99 176.117 2761.99 229.528ZM1437.55 363.493C1432.75 389.76 1264.59 1025.44 1264.59 1025.44C1257.38 1040.32 1227.59 1067.99 1166.1 1059.58C1161.29 1067.46 1153.12 1083.23 1158.89 1083.23H1540.85C1639.34 1077.97 1835.36 1023.86 1831.52 849.443C1833.92 797.784 1803.17 684.483 1660.96 665.57L1646.55 662.943L1673.75 654.861C1745.29 636.199 1889.66 570.588 1891.58 455.429C1893.98 310.958 1747.44 289.943 1692.19 289.943H1355.87L1351.07 308.331C1408.94 306.039 1442.35 337.225 1437.55 363.493ZM1593.7 331.972C1658.56 322.34 1777.23 350.359 1704.2 539.486C1694.59 563.127 1663.36 614.086 1615.32 628.796C1567.27 643.505 1522.43 643.68 1512.02 641.929L1593.7 331.972ZM1500.08 690.676C1528.91 688.08 1594.01 692.234 1603.9 698.466C1604.49 698.837 1605.26 699.291 1606.18 699.836C1624.6 710.723 1704.49 757.945 1648.39 908.783C1598.95 1041.72 1463 1048.99 1408.61 1038.61L1500.08 690.676Z" stroke="white"/>
</svg>
