<svg width="3329" height="1494" viewBox="0 0 3329 1494" fill="none" xmlns="http://www.w3.org/2000/svg">
<path d="M861.91 781.148C841.16 847.849 821.173 875.171 745.572 875.711V894.099H1097.01V875.711C1022.67 875.265 1004.81 864.924 1012.18 825.803L1181.84 182.246C1191.35 148.732 1217.45 127.78 1288.48 121.831V100.817H937.045L932.198 121.831C1002.07 128.976 1028.29 138.899 1019.45 182.246L861.91 781.148Z" fill="white"/>
<path fill-rule="evenodd" clip-rule="evenodd" d="M289.143 865.204C270.726 857.324 244.358 841.563 267.523 762.761C289.143 689.211 332.058 518.472 337.188 502.711H378.027L469.313 862.577C471.715 870.458 478.922 888.845 490.933 888.845L699.929 891.472V873.084C683.914 873.96 646.599 867.306 625.459 833.683C591.828 783.775 529.369 510.592 526.967 500.085C523.556 485.375 535.155 481.697 541.38 481.697C691.281 443.872 722.351 331.096 719.148 279.437C721.55 134.965 601.437 108.697 567.805 106.07C540.9 103.969 312.365 102.568 197.857 100.817H190.651V119.204C255.512 119.204 269.925 137.592 269.925 174.366L106.572 802.162C99.3649 828.43 71.9792 872.034 0.872314 867.831V886.218H8.07908L340.509 888.845V873.084C329.793 873.084 304.518 871.508 289.143 865.204ZM502.944 150.725C546.185 166.486 572.61 192.754 555.794 313.585C541.958 413.001 457.301 465.937 421.267 468.563H344.395L433.279 145.472C443.689 143.721 474.117 142.32 502.944 150.725Z" fill="white"/>
<path d="M1607.98 1458.85C1607.98 1458.85 2165.31 896.489 2165.31 885.98C2165.31 875.472 2093.24 799.297 2074.02 746.762C2054.8 694.227 2119.66 615.663 2172.51 623.543C2225.36 631.424 2335.44 691.081 2431.96 786.403C2499.31 853.491 2535.18 894.161 2595.31 972.903C2655.45 1051.64 2612.13 1133.62 2508.83 1196.18C2405.53 1258.73 2243.29 1314.94 2042.79 1319.63C2195.23 1241.09 2400.73 1101.61 2417.54 1088.48C2434.36 1075.35 2431.96 1069.85 2431.96 1061.97C2431.96 1054.09 2405.53 1022.57 2393.52 1009.44C2381.51 996.306 2350.28 993.678 2335.87 993.678C2321.45 993.678 1607.98 1493 1607.98 1493V1458.85Z" fill="white"/>
<path d="M3328 400.507C3321.63 396.971 3126.97 635.967 3080.57 655.302C3034.17 674.638 2998.37 645.378 2965.26 581.753C2932.01 475.141 2871.57 403.133 2842.74 411.014C2813.92 418.894 2791.64 461.423 2782.69 510.592C2777.23 584.451 2804.31 654.824 2835.54 699.718C2866.77 744.612 2943.64 810.042 3018.11 810.042C3092.58 810.042 3162.75 755.526 3251.13 636.915C3309.24 550.803 3326.78 499.2 3328 400.507Z" fill="white"/>
<path d="M2417.54 271.795C2457.58 298.063 2546.02 325.865 2566.48 277.049C2592.91 214.007 2532.85 145.711 2528.05 140.457C2420.43 12.2715 2326.26 3.86583 2261.4 1.23907C2244 0.101968 2220.03 3.21437 2206.15 6.49261C2193.58 9.45921 2181.4 14.7662 2167.71 22.2532C2000.51 135.729 2010.76 390 2037.99 505.577C2062.01 387.373 2136.48 151.49 2242.18 153.591C2278.69 153.591 2321.45 186.863 2338.27 203.5C2362.17 227.14 2393.52 256.035 2417.54 271.795Z" fill="white"/>
<path d="M2669.99 229.528C2672.39 276.81 2705.54 372.949 2818.93 379.254C2932.31 385.558 2976.47 282.063 2979.67 229.528C2978.87 179.62 2943.64 78.9483 2818.93 74.5493C2699.77 70.3465 2669.99 176.117 2669.99 229.528Z" fill="white"/>
<path fill-rule="evenodd" clip-rule="evenodd" d="M1437.42 169.113C1432.62 195.38 1264.46 831.056 1264.46 831.056C1257.25 845.941 1227.47 873.61 1165.97 865.204C1161.16 873.085 1153 888.845 1158.76 888.845H1540.72C1639.21 883.592 1835.24 829.48 1831.39 655.063C1833.8 603.404 1803.05 490.103 1660.83 471.19L1646.42 468.563L1673.62 460.481C1745.16 441.819 1889.53 376.208 1891.45 261.049C1893.85 116.577 1747.31 95.5634 1692.06 95.5634H1355.75L1350.94 113.951C1408.81 111.659 1442.23 142.845 1437.42 169.113ZM1704.07 345.106C1777.1 155.979 1658.43 127.96 1593.57 137.592L1511.89 447.549C1522.3 449.3 1567.14 449.125 1615.19 434.415C1663.23 419.706 1694.46 368.746 1704.07 345.106ZM1603.77 504.086C1593.88 497.854 1528.79 493.7 1499.95 496.296L1408.48 844.228C1462.87 854.614 1598.83 847.344 1648.27 714.403C1704.36 563.565 1624.47 516.343 1606.05 505.456C1605.13 504.911 1604.36 504.457 1603.77 504.086Z" fill="white"/>
<path d="M190.651 100.817H197.857C312.365 102.568 540.9 103.969 567.805 106.07C601.437 108.697 721.55 134.965 719.148 279.437C722.351 331.096 691.281 443.872 541.38 481.697C535.155 481.697 523.556 485.375 526.967 500.085C529.369 510.592 591.828 783.775 625.459 833.683C646.599 867.306 683.914 873.96 699.929 873.084V891.472L490.933 888.845C478.922 888.845 471.715 870.458 469.313 862.577L378.027 502.711H337.188C332.058 518.472 289.143 689.211 267.523 762.761C244.358 841.563 270.726 857.324 289.143 865.204C304.518 871.508 329.793 873.084 340.509 873.084V888.845L8.07908 886.218H0.872314V867.831C71.9792 872.034 99.3649 828.43 106.572 802.162L269.925 174.366C269.925 137.592 255.512 119.204 190.651 119.204V100.817ZM190.651 100.817V121.831M745.572 875.711C821.173 875.171 841.16 847.849 861.91 781.148L1019.45 182.246C1028.29 138.899 1002.07 128.976 932.198 121.831L937.045 100.817H1288.48V121.831C1217.45 127.78 1191.35 148.732 1181.84 182.246L1012.18 825.803C1004.81 864.924 1022.67 875.265 1097.01 875.711V894.099H745.572V875.711ZM555.794 313.585C572.61 192.754 546.185 166.486 502.944 150.725C474.117 142.32 443.689 143.721 433.279 145.472L344.395 468.563H421.267C457.301 465.937 541.958 413.001 555.794 313.585ZM1607.98 1458.85C1607.98 1458.85 2165.31 896.489 2165.31 885.98C2165.31 875.472 2093.24 799.297 2074.02 746.762C2054.8 694.227 2119.66 615.663 2172.51 623.543C2225.36 631.424 2335.44 691.081 2431.96 786.403C2499.31 853.491 2535.18 894.161 2595.31 972.903C2655.45 1051.64 2612.13 1133.62 2508.83 1196.18C2405.53 1258.73 2243.29 1314.94 2042.79 1319.63C2195.23 1241.09 2400.73 1101.61 2417.54 1088.48C2434.36 1075.35 2431.96 1069.85 2431.96 1061.97C2431.96 1054.09 2405.53 1022.57 2393.52 1009.44C2381.51 996.306 2350.28 993.678 2335.87 993.678C2321.45 993.678 1607.98 1493 1607.98 1493V1458.85ZM3328 400.507C3321.63 396.971 3126.97 635.967 3080.57 655.302C3034.17 674.638 2998.37 645.378 2965.26 581.753C2932.01 475.141 2871.57 403.133 2842.74 411.014C2813.92 418.894 2791.64 461.423 2782.69 510.592C2777.23 584.451 2804.31 654.824 2835.54 699.718C2866.77 744.612 2943.64 810.042 3018.11 810.042C3092.58 810.042 3162.75 755.526 3251.13 636.915C3309.24 550.803 3326.78 499.2 3328 400.507ZM2417.54 271.795C2457.58 298.063 2546.02 325.865 2566.48 277.049C2592.91 214.007 2532.85 145.711 2528.05 140.457C2420.43 12.2715 2326.26 3.86583 2261.4 1.23907C2244 0.101968 2220.03 3.21437 2206.15 6.49261C2193.58 9.45921 2181.4 14.7662 2167.71 22.2532C2000.51 135.729 2010.76 390 2037.99 505.577C2062.01 387.373 2136.48 151.49 2242.18 153.591C2278.69 153.591 2321.45 186.863 2338.27 203.5C2362.17 227.14 2393.52 256.035 2417.54 271.795ZM2669.99 229.528C2672.39 276.81 2705.54 372.949 2818.93 379.254C2932.31 385.558 2976.47 282.063 2979.67 229.528C2978.87 179.62 2943.64 78.9483 2818.93 74.5493C2699.77 70.3465 2669.99 176.117 2669.99 229.528ZM1437.42 169.113C1432.62 195.38 1264.46 831.056 1264.46 831.056C1257.25 845.941 1227.47 873.61 1165.97 865.204C1161.16 873.085 1153 888.845 1158.76 888.845H1540.72C1639.21 883.592 1835.24 829.48 1831.39 655.063C1833.8 603.404 1803.05 490.103 1660.83 471.19L1646.42 468.563L1673.62 460.481C1745.16 441.819 1889.53 376.208 1891.45 261.049C1893.85 116.577 1747.31 95.5634 1692.06 95.5634H1355.75L1350.94 113.951C1408.81 111.659 1442.23 142.845 1437.42 169.113ZM1593.57 137.592C1658.43 127.96 1777.1 155.979 1704.07 345.106C1694.46 368.746 1663.23 419.706 1615.19 434.415C1567.14 449.125 1522.3 449.3 1511.89 447.549L1593.57 137.592ZM1499.95 496.296C1528.79 493.7 1593.88 497.854 1603.77 504.086C1604.36 504.457 1605.13 504.911 1606.05 505.456C1624.47 516.343 1704.36 563.565 1648.27 714.403C1598.83 847.344 1462.87 854.614 1408.48 844.228L1499.95 496.296Z" stroke="white"/>
</svg>
